<?xml version="1.0" encoding="UTF-8" standalone="no"?>
<!-- Created with Inkscape (http://www.inkscape.org/) -->

<svg
   xmlns:dc="http://purl.org/dc/elements/1.1/"
   xmlns:cc="http://creativecommons.org/ns#"
   xmlns:rdf="http://www.w3.org/1999/02/22-rdf-syntax-ns#"
   xmlns:svg="http://www.w3.org/2000/svg"
   xmlns="http://www.w3.org/2000/svg"
   xmlns:sodipodi="http://sodipodi.sourceforge.net/DTD/sodipodi-0.dtd"
   xmlns:inkscape="http://www.inkscape.org/namespaces/inkscape"
   width="70"
   height="82"
   viewBox="0 0 70 82"
   id="svg4667"
   version="1.1"
   inkscape:version="0.91 r13725"
   sodipodi:docname="button-arrow-left.svg"
   inkscape:export-filename="button-arrowleft-diabled.png"
   inkscape:export-xdpi="90"
   inkscape:export-ydpi="90">
  <defs
     id="defs4669" />
  <sodipodi:namedview
     id="base"
     pagecolor="#ffffff"
     bordercolor="#666666"
     borderopacity="1.0"
     inkscape:pageopacity="0.0"
     inkscape:pageshadow="2"
     inkscape:zoom="2"
     inkscape:cx="-102.40256"
     inkscape:cy="93.348275"
     inkscape:document-units="px"
     inkscape:current-layer="g4147"
     showgrid="false"
     units="px"
     inkscape:window-width="1920"
     inkscape:window-height="1017"
     inkscape:window-x="-8"
     inkscape:window-y="-8"
     inkscape:window-maximized="1" />
  <metadata
     id="metadata4672">
    <rdf:RDF>
      <cc:Work
         rdf:about="">
        <dc:format>image/svg+xml</dc:format>
        <dc:type
           rdf:resource="http://purl.org/dc/dcmitype/StillImage" />
        <dc:title />
      </cc:Work>
    </rdf:RDF>
  </metadata>
  <g
     style="display:inline"
     transform="translate(0,-970.36216)"
     id="g4147"
     inkscape:groupmode="layer"
     inkscape:label="diabled"
     sodipodi:insensitive="true">
    <path
       style="fill:#556dff;fill-opacity:0.51999996;fill-rule:evenodd;stroke:none;stroke-width:1px;stroke-linecap:butt;stroke-linejoin:miter;stroke-opacity:1"
       d="m 64.75,978.36216 -3,33.50004 2.5,36.5 -24,-2 -14.72343,-20.216 -13.77657,-16.284 2.5,-4 14,-11.50004 13.5,-15 z"
       id="path4149"
       inkscape:connector-curvature="0"
       sodipodi:nodetypes="cccccccccc" />
    <path
       sodipodi:nodetypes="cccccccccc"
       inkscape:connector-curvature="0"
       id="path4151"
       d="m 59.25,974.86216 -3,33.50004 2.5,36.5 -24,-2 -14.72343,-20.216 -13.77657,-16.284 2.5,-4 14,-11.50004 13.5,-15 z"
       style="fill:#556dff;fill-opacity:1;fill-rule:evenodd;stroke:none;stroke-width:1px;stroke-linecap:butt;stroke-linejoin:miter;stroke-opacity:1" />
    <path
       inkscape:connector-curvature="0"
       id="path4153"
       d="m 51.25,982.36216 -1.5,34.00004 1.5,21.5 -13.5,1 -24.5,-31 24,-25.50004 z"
       style="fill:#46b7ff;fill-opacity:1;fill-rule:evenodd;stroke:none;stroke-width:1px;stroke-linecap:butt;stroke-linejoin:miter;stroke-opacity:1" />
    <path
       transform="scale(-1,1)"
       sodipodi:type="star"
       style="fill:#2a00fc;fill-opacity:0.14736843;stroke:none;stroke-width:2;stroke-linecap:round;stroke-miterlimit:4;stroke-dasharray:none;stroke-opacity:1"
       id="path4155"
       sodipodi:sides="5"
       sodipodi:cx="-36.052994"
       sodipodi:cy="1009.2997"
       sodipodi:r1="12"
       sodipodi:r2="5.6146202"
       sodipodi:arg1="-2.3561945"
       sodipodi:arg2="-1.727876"
       inkscape:flatsided="false"
       inkscape:rounded="0.24"
       inkscape:randomized="0"
       d="m -44.538275,1000.8144 c 1.383993,-1.38399 5.673797,3.246 7.606961,2.9398 1.933164,-0.3062 4.582273,-6.03517 6.326206,-5.1466 1.743933,0.88858 -1.333801,6.3992 -0.445223,8.1431 0.888579,1.7439 7.15578,2.493 6.849597,4.4262 -0.306183,1.9332 -6.498131,0.7089 -7.882124,2.0929 -1.383992,1.384 -0.159758,7.576 -2.092922,7.8821 -1.933164,0.3062 -2.682265,-5.961 -4.426198,-6.8496 -1.743933,-0.8885 -7.254516,2.1892 -8.143094,0.4453 -0.888578,-1.744 4.8404,-4.3931 5.146583,-6.3262 0.306183,-1.9332 -4.323779,-6.223 -2.939786,-7.607 z"
       inkscape:transform-center-x="0.53876163"
       inkscape:transform-center-y="0.53876148" />
  </g>
  <g
     inkscape:label="plain"
     inkscape:groupmode="layer"
     id="layer1"
     transform="translate(0,-970.36216)"
     style="display:none"
     sodipodi:insensitive="true">
    <path
       sodipodi:nodetypes="cccccccccc"
       inkscape:connector-curvature="0"
       id="path4163"
       d="m 64.75,978.36216 -3,33.50004 2.5,36.5 -24,-2 -14.72343,-20.216 -13.77657,-16.284 2.5,-4 14,-11.50004 13.5,-15 z"
       style="fill:#556dff;fill-opacity:0.51999996;fill-rule:evenodd;stroke:none;stroke-width:1px;stroke-linecap:butt;stroke-linejoin:miter;stroke-opacity:1" />
    <path
       style="fill:#556dff;fill-opacity:1;fill-rule:evenodd;stroke:none;stroke-width:1px;stroke-linecap:butt;stroke-linejoin:miter;stroke-opacity:1"
       d="m 59.25,974.86216 -3,33.50004 2.5,36.5 -24,-2 -14.72343,-20.216 -13.77657,-16.284 2.5,-4 14,-11.50004 13.5,-15 z"
       id="path4158"
       inkscape:connector-curvature="0"
       sodipodi:nodetypes="cccccccccc" />
    <path
       style="fill:#55eeff;fill-opacity:1;fill-rule:evenodd;stroke:none;stroke-width:1px;stroke-linecap:butt;stroke-linejoin:miter;stroke-opacity:1"
       d="m 51.25,982.36216 -1.5,34.00004 1.5,21.5 -13.5,1 -24.5,-31 24,-25.50004 z"
       id="path4161"
       inkscape:connector-curvature="0" />
    <path
       inkscape:transform-center-y="0.53876148"
       inkscape:transform-center-x="0.53876163"
       d="m -44.538275,1000.8144 c 1.383993,-1.38399 5.673797,3.246 7.606961,2.9398 1.933164,-0.3062 4.582273,-6.03517 6.326206,-5.1466 1.743933,0.88858 -1.333801,6.3992 -0.445223,8.1431 0.888579,1.7439 7.15578,2.493 6.849597,4.4262 -0.306183,1.9332 -6.498131,0.7089 -7.882124,2.0929 -1.383992,1.384 -0.159758,7.576 -2.092922,7.8821 -1.933164,0.3062 -2.682265,-5.961 -4.426198,-6.8496 -1.743933,-0.8885 -7.254516,2.1892 -8.143094,0.4453 -0.888578,-1.744 4.8404,-4.3931 5.146583,-6.3262 0.306183,-1.9332 -4.323779,-6.223 -2.939786,-7.607 z"
       inkscape:randomized="0"
       inkscape:rounded="0.24"
       inkscape:flatsided="false"
       sodipodi:arg2="-1.727876"
       sodipodi:arg1="-2.3561945"
       sodipodi:r2="5.6146202"
       sodipodi:r1="12"
       sodipodi:cy="1009.2997"
       sodipodi:cx="-36.052994"
       sodipodi:sides="5"
       id="path4176"
       style="fill:#2a00fc;fill-opacity:0.14736843;stroke:none;stroke-width:2;stroke-linecap:round;stroke-miterlimit:4;stroke-dasharray:none;stroke-opacity:1"
       sodipodi:type="star"
       transform="scale(-1,1)" />
  </g>
  <g
     transform="translate(0,-970.36216)"
     id="g5245"
     inkscape:groupmode="layer"
     inkscape:label="active"
     style="display:none"
     sodipodi:insensitive="true">
    <path
       sodipodi:nodetypes="cccccccccc"
       inkscape:connector-curvature="0"
       id="path4163-0"
       d="m 64.75,978.36216 -3,33.50004 2.5,36.5 -24,-2 -14.72343,-20.216 -13.77657,-16.284 2.5,-4 14,-11.50004 13.5,-15 z"
       style="display:inline;fill:#006609;fill-opacity:0.4627451;fill-rule:evenodd;stroke:none;stroke-width:1px;stroke-linecap:butt;stroke-linejoin:miter;stroke-opacity:1" />
    <path
       style="display:inline;fill:#006708;fill-opacity:0.99215686;fill-rule:evenodd;stroke:none;stroke-width:1px;stroke-linecap:butt;stroke-linejoin:miter;stroke-opacity:1"
       d="m 59.25,974.86216 -3,33.50004 2.5,36.5 -24,-2 -14.72343,-20.216 -13.77657,-16.284 2.5,-4 14,-11.50004 13.5,-15 z"
       id="path4158-0"
       inkscape:connector-curvature="0"
       sodipodi:nodetypes="cccccccccc" />
    <path
       style="display:inline;fill:#56ff46;fill-opacity:1;fill-rule:evenodd;stroke:none;stroke-width:1px;stroke-linecap:butt;stroke-linejoin:miter;stroke-opacity:1"
       d="m 51.25,982.36216 -1.5,34.00004 1.5,21.5 -13.5,1 -24.5,-31 24,-25.50004 z"
       id="path4161-5"
       inkscape:connector-curvature="0" />
    <path
       inkscape:transform-center-y="0.53876148"
       inkscape:transform-center-x="0.53876163"
       d="m -44.538275,1000.8144 c 1.383993,-1.38399 5.673797,3.246 7.606961,2.9398 1.933164,-0.3062 4.582273,-6.03517 6.326206,-5.1466 1.743933,0.88858 -1.333801,6.3992 -0.445223,8.1431 0.888579,1.7439 7.15578,2.493 6.849597,4.4262 -0.306183,1.9332 -6.498131,0.7089 -7.882124,2.0929 -1.383992,1.384 -0.159758,7.576 -2.092922,7.8821 -1.933164,0.3062 -2.682265,-5.961 -4.426198,-6.8496 -1.743933,-0.8885 -7.254516,2.1892 -8.143094,0.4453 -0.888578,-1.744 4.8404,-4.3931 5.146583,-6.3262 0.306183,-1.9332 -4.323779,-6.223 -2.939786,-7.607 z"
       inkscape:randomized="0"
       inkscape:rounded="0.24"
       inkscape:flatsided="false"
       sodipodi:arg2="-1.727876"
       sodipodi:arg1="-2.3561945"
       sodipodi:r2="5.6146202"
       sodipodi:r1="12"
       sodipodi:cy="1009.2997"
       sodipodi:cx="-36.052994"
       sodipodi:sides="5"
       id="path4176-6"
       style="display:inline;fill:#41db37;fill-opacity:1;stroke:none;stroke-width:2;stroke-linecap:round;stroke-miterlimit:4;stroke-dasharray:none;stroke-opacity:1"
       sodipodi:type="star"
       transform="scale(-1,1)" />
  </g>
  <g
     style="display:none"
     inkscape:label="clicked"
     inkscape:groupmode="layer"
     id="g5274"
     transform="translate(0,-970.36216)"
     sodipodi:insensitive="true">
    <path
       sodipodi:nodetypes="cccccccccc"
       inkscape:connector-curvature="0"
       id="path4163-4"
       d="m 64.75,978.36216 -3,33.50004 2.5,36.5 -24,-2 -14.72343,-20.216 -13.77657,-16.284 2.5,-4 14,-11.50004 13.5,-15 z"
       style="display:inline;fill:#939500;fill-opacity:0.5098038;fill-rule:evenodd;stroke:none;stroke-width:1px;stroke-linecap:butt;stroke-linejoin:miter;stroke-opacity:1" />
    <path
       style="display:inline;fill:#939500;fill-opacity:0.99607843;fill-rule:evenodd;stroke:none;stroke-width:1px;stroke-linecap:butt;stroke-linejoin:miter;stroke-opacity:1"
       d="m 59.25,974.86216 -3,33.50004 2.5,36.5 -24,-2 -14.72343,-20.216 -13.77657,-16.284 2.5,-4 14,-11.50004 13.5,-15 z"
       id="path4158-02"
       inkscape:connector-curvature="0"
       sodipodi:nodetypes="cccccccccc" />
    <path
       style="display:inline;fill:#ecff46;fill-opacity:1;fill-rule:evenodd;stroke:none;stroke-width:1px;stroke-linecap:butt;stroke-linejoin:miter;stroke-opacity:1"
       d="m 51.25,982.36216 -1.5,34.00004 1.5,21.5 -13.5,1 -24.5,-31 24,-25.50004 z"
       id="path4161-1"
       inkscape:connector-curvature="0" />
    <path
       inkscape:transform-center-y="0.53876148"
       inkscape:transform-center-x="0.53876163"
       d="m -44.538275,1000.8144 c 1.383993,-1.38399 5.673797,3.246 7.606961,2.9398 1.933164,-0.3062 4.582273,-6.03517 6.326206,-5.1466 1.743933,0.88858 -1.333801,6.3992 -0.445223,8.1431 0.888579,1.7439 7.15578,2.493 6.849597,4.4262 -0.306183,1.9332 -6.498131,0.7089 -7.882124,2.0929 -1.383992,1.384 -0.159758,7.576 -2.092922,7.8821 -1.933164,0.3062 -2.682265,-5.961 -4.426198,-6.8496 -1.743933,-0.8885 -7.254516,2.1892 -8.143094,0.4453 -0.888578,-1.744 4.8404,-4.3931 5.146583,-6.3262 0.306183,-1.9332 -4.323779,-6.223 -2.939786,-7.607 z"
       inkscape:randomized="0"
       inkscape:rounded="0.24"
       inkscape:flatsided="false"
       sodipodi:arg2="-1.727876"
       sodipodi:arg1="-2.3561945"
       sodipodi:r2="5.6146202"
       sodipodi:r1="12"
       sodipodi:cy="1009.2997"
       sodipodi:cx="-36.052994"
       sodipodi:sides="5"
       id="path4176-5"
       style="display:inline;fill:#d1df31;fill-opacity:1;stroke:none;stroke-width:2;stroke-linecap:round;stroke-miterlimit:4;stroke-dasharray:none;stroke-opacity:1"
       sodipodi:type="star"
       transform="scale(-1,1)" />
  </g>
</svg>
