<?xml version="1.0" encoding="UTF-8" standalone="no"?>
<!-- Created with Inkscape (http://www.inkscape.org/) -->

<svg
   xmlns:dc="http://purl.org/dc/elements/1.1/"
   xmlns:cc="http://creativecommons.org/ns#"
   xmlns:rdf="http://www.w3.org/1999/02/22-rdf-syntax-ns#"
   xmlns:svg="http://www.w3.org/2000/svg"
   xmlns="http://www.w3.org/2000/svg"
   xmlns:sodipodi="http://sodipodi.sourceforge.net/DTD/sodipodi-0.dtd"
   xmlns:inkscape="http://www.inkscape.org/namespaces/inkscape"
   width="424"
   height="96"
   viewBox="0 0 424 96.000001"
   id="svg4667"
   version="1.1"
   inkscape:version="0.91 r13725"
   sodipodi:docname="button-424x96.svg"
   inkscape:export-filename="button-424x96-disabled.png"
   inkscape:export-xdpi="90"
   inkscape:export-ydpi="90">
  <defs
     id="defs4669" />
  <sodipodi:namedview
     id="base"
     pagecolor="#ffffff"
     bordercolor="#666666"
     borderopacity="1.0"
     inkscape:pageopacity="0.0"
     inkscape:pageshadow="2"
     inkscape:zoom="1.4142136"
     inkscape:cx="36.750203"
     inkscape:cy="160"
     inkscape:document-units="px"
     inkscape:current-layer="g4168"
     showgrid="false"
     units="px"
     inkscape:window-width="1920"
     inkscape:window-height="1017"
     inkscape:window-x="-8"
     inkscape:window-y="-8"
     inkscape:window-maximized="1" />
  <metadata
     id="metadata4672">
    <rdf:RDF>
      <cc:Work
         rdf:about="">
        <dc:format>image/svg+xml</dc:format>
        <dc:type
           rdf:resource="http://purl.org/dc/dcmitype/StillImage" />
        <dc:title />
      </cc:Work>
    </rdf:RDF>
  </metadata>
  <g
     style="display:inline"
     transform="translate(0,-956.36216)"
     id="g4168"
     inkscape:groupmode="layer"
     inkscape:label="disabled"
     sodipodi:insensitive="true">
    <path
       sodipodi:nodetypes="ccccccccc"
       inkscape:connector-curvature="0"
       id="path4170"
       d="m 14,978.3622 1,33 -2,33 263,1 138,5 5,-70 -138,1 -144,-9.0001 z"
       style="fill:#556dff;fill-opacity:0.44888892;fill-rule:evenodd;stroke:none;stroke-width:1px;stroke-linecap:butt;stroke-linejoin:miter;stroke-opacity:1" />
    <path
       style="fill:#556dff;fill-opacity:1;fill-rule:evenodd;stroke:none;stroke-width:1px;stroke-linecap:butt;stroke-linejoin:miter;stroke-opacity:1"
       d="m 7,968.3621 2,37.0001 -2,33 263,1 138,5 7,-75.0001 -131,3 -153,-6 z"
       id="path4172"
       inkscape:connector-curvature="0"
       sodipodi:nodetypes="ccccccccc" />
    <path
       sodipodi:nodetypes="cccccccccccc"
       style="fill:#46b7ff;fill-opacity:1;fill-rule:evenodd;stroke:none;stroke-width:1px;stroke-linecap:butt;stroke-linejoin:miter;stroke-opacity:1"
       d="m 16,978.3622 79,-4.0001 123,-1 101,8.0001 87,-6 -4,39 1,23 -89,-6 -153,1 -92,-5 -52,6 z"
       id="path4174"
       inkscape:connector-curvature="0" />
    <path
       inkscape:transform-center-y="-0.68720132"
       inkscape:transform-center-x="0.12063081"
       d="m 42.426408,995.7936 c -1.153327,0.92266 -3.98485,-2.90729 -5.460238,-2.83875 -1.475389,0.0685 -3.939635,4.14451 -5.173537,3.33275 -1.233901,-0.81176 1.533614,-4.68822 1.012509,-6.07022 -0.521106,-1.38199 -5.159082,-2.46609 -4.768348,-3.89044 0.390734,-1.42436 4.932676,0.01 6.086003,-0.91285 1.153327,-0.92266 0.751147,-5.66864 2.226535,-5.73718 1.475389,-0.0686 1.514947,4.69428 2.748849,5.50604 1.233901,0.81176 5.623316,-1.03732 6.144422,0.34468 0.521106,1.38199 -3.996387,2.89141 -4.387121,4.31577 -0.390735,1.42436 2.724253,5.02754 1.570926,5.9502 z"
       inkscape:randomized="0"
       inkscape:rounded="0.24"
       inkscape:flatsided="false"
       sodipodi:arg2="1.5243739"
       sodipodi:arg1="0.89605538"
       sodipodi:r2="4.2368789"
       sodipodi:r1="9.0553846"
       sodipodi:cy="988.72253"
       sodipodi:cx="36.769554"
       sodipodi:sides="5"
       id="path4176"
       style="fill:#2a00fc;fill-opacity:0.14736843;stroke:none;stroke-width:2;stroke-linecap:round;stroke-miterlimit:4;stroke-dasharray:none;stroke-opacity:1"
       sodipodi:type="star" />
    <path
       inkscape:transform-center-y="0.35658217"
       inkscape:transform-center-x="-0.66597509"
       d="m 360.62446,997.91491 c -0.92266,-1.61466 4.39392,-4.38949 4.59655,-6.2381 0.20262,-1.84861 -4.38667,-5.70921 -3.13615,-7.08567 1.25051,-1.37646 5.53244,2.82244 7.35319,2.4439 1.82075,-0.37855 4.07423,-5.93621 5.76975,-5.17225 1.69552,0.76396 -0.97468,6.13385 -0.052,7.74851 0.92266,1.61466 6.90467,2.04043 6.70205,3.88904 -0.20262,1.84862 -6.13483,0.96849 -7.38535,2.34495 -1.25051,1.37646 0.1931,7.19731 -1.62765,7.57581 -1.82075,0.3785 -2.81685,-5.53529 -4.51237,-6.29925 -1.69553,-0.76396 -6.78534,2.40772 -7.708,0.79306 z"
       inkscape:randomized="0"
       inkscape:rounded="0.24"
       inkscape:flatsided="false"
       sodipodi:arg2="3.2507651"
       sodipodi:arg1="2.6224465"
       sodipodi:r2="5.3347096"
       sodipodi:r1="11.401754"
       sodipodi:cy="992.25806"
       sodipodi:cx="370.52396"
       sodipodi:sides="5"
       id="path4178"
       style="fill:#2a00fc;fill-opacity:0.14736843;stroke:none;stroke-width:2;stroke-linecap:round;stroke-miterlimit:4;stroke-dasharray:none;stroke-opacity:1"
       sodipodi:type="star" />
    <path
       inkscape:transform-center-y="0.53876148"
       inkscape:transform-center-x="-0.53876148"
       d="m 190.21172,1007.8144 c 1.384,-1.384 5.6738,3.246 7.60697,2.9398 1.93316,-0.3062 4.58227,-6.0352 6.3262,-5.1466 1.74393,0.8886 -1.3338,6.3992 -0.44522,8.1431 0.88858,1.7439 7.15578,2.493 6.8496,4.4262 -0.30619,1.9332 -6.49813,0.7089 -7.88213,2.0929 -1.38399,1.384 -0.15976,7.576 -2.09292,7.8821 -1.93316,0.3062 -2.68227,-5.961 -4.4262,-6.8496 -1.74393,-0.8885 -7.25451,2.1892 -8.14309,0.4453 -0.88858,-1.744 4.8404,-4.3931 5.14658,-6.3262 0.30618,-1.9332 -4.32378,-6.223 -2.93979,-7.607 z"
       inkscape:randomized="0"
       inkscape:rounded="0.24"
       inkscape:flatsided="false"
       sodipodi:arg2="-1.727876"
       sodipodi:arg1="-2.3561945"
       sodipodi:r2="5.6146202"
       sodipodi:r1="12"
       sodipodi:cy="1016.2997"
       sodipodi:cx="198.69701"
       sodipodi:sides="5"
       id="path4180"
       style="fill:#2a00fc;fill-opacity:0.14736843;stroke:none;stroke-width:2;stroke-linecap:round;stroke-miterlimit:4;stroke-dasharray:none;stroke-opacity:1"
       sodipodi:type="star" />
    <path
       inkscape:transform-center-y="-0.24126162"
       inkscape:transform-center-x="1.3744026"
       d="m 142.12846,1009.2286 c -1.84533,2.3067 -9.05169,-3.9233 -11.90041,-3.1418 -2.84872,0.7814 -5.86755,9.8164 -8.63155,8.7742 -2.76399,-1.0422 0.93418,-9.821 -0.68934,-12.2888 -1.62353,-2.4678 -11.14918,-2.5469 -11.0121,-5.49773 0.13708,-2.95077 9.62904,-2.14641 11.47437,-4.45307 1.84532,-2.30665 -1.02302,-11.39053 1.82569,-12.172 2.84872,-0.78147 5.0169,8.49448 7.7809,9.53669 2.764,1.04221 10.51691,-4.49282 12.14044,-2.02501 1.62352,2.4678 -6.52843,7.39629 -6.66551,10.34707 -0.13708,2.95075 7.52283,8.61385 5.67751,10.92045 z"
       inkscape:randomized="0"
       inkscape:rounded="0.24"
       inkscape:flatsided="false"
       sodipodi:arg2="1.3030595"
       sodipodi:arg1="0.67474094"
       sodipodi:r2="8.4737577"
       sodipodi:r1="18.110769"
       sodipodi:cy="997.91492"
       sodipodi:cx="127.98632"
       sodipodi:sides="5"
       id="path4182"
       style="fill:#2a00fc;fill-opacity:0.14736843;stroke:none;stroke-width:2;stroke-linecap:round;stroke-miterlimit:4;stroke-dasharray:none;stroke-opacity:1"
       sodipodi:type="star" />
    <path
       inkscape:transform-center-y="0.46317408"
       inkscape:transform-center-x="0.13339783"
       d="m 267.28637,994.37946 c 0.92266,-0.57666 2.66756,2.46746 3.75296,2.54326 1.0854,0.0758 3.23646,-2.69627 4.07002,-1.99696 0.83356,0.6993 -1.52237,3.29949 -1.25905,4.35519 0.26332,1.05575 3.56442,2.24485 3.15692,3.25375 -0.40749,1.0088 -3.60844,-0.4283 -4.5311,0.1484 -0.92266,0.5766 -1.03353,4.0836 -2.11893,4.0078 -1.0854,-0.076 -0.70777,-3.5641 -1.54132,-4.2634 -0.83356,-0.6993 -4.20318,0.2789 -4.4665,-0.7768 -0.26332,-1.0557 3.17102,-1.77447 3.57851,-2.78333 0.40749,-1.00886 -1.56418,-3.91124 -0.64151,-4.48791 z"
       inkscape:randomized="0"
       inkscape:rounded="0.24"
       inkscape:flatsided="false"
       sodipodi:arg2="-1.5010771"
       sodipodi:arg1="-2.1293956"
       sodipodi:r2="3.1211822"
       sodipodi:r1="6.6708322"
       sodipodi:cy="1000.0363"
       sodipodi:cx="270.8219"
       sodipodi:sides="5"
       id="path4184"
       style="fill:#2a00fc;fill-opacity:0.14736843;stroke:none;stroke-width:2;stroke-linecap:round;stroke-miterlimit:4;stroke-dasharray:none;stroke-opacity:1"
       sodipodi:type="star" />
    <path
       inkscape:transform-center-y="-1.4589347"
       inkscape:transform-center-x="-0.29962944"
       d="m 317.49096,1005.6932 c 1.15332,-2.9987 10.67467,1.0864 13.3703,-0.6617 2.69562,-1.748 2.84996,-12.10757 6.05825,-11.93732 3.20828,0.17024 2.26541,10.48792 4.76089,12.51142 2.49549,2.0236 12.3957,-1.0309 13.2252,2.0729 0.8295,3.1039 -9.27458,5.3955 -10.42791,8.3942 -1.15332,2.9986 4.81099,11.4704 2.11537,13.2184 -2.69563,1.7481 -7.99741,-7.1533 -11.20569,-7.3236 -3.20829,-0.1702 -9.42234,8.1201 -11.91783,6.0966 -2.49549,-2.0235 4.33191,-9.8165 3.5024,-12.9204 -0.8295,-3.1038 -10.63431,-6.4519 -9.48098,-9.4505 z"
       inkscape:randomized="0"
       inkscape:rounded="0.24"
       inkscape:flatsided="false"
       sodipodi:arg2="-2.1461003"
       sodipodi:arg1="-2.7744188"
       sodipodi:r2="9.2162657"
       sodipodi:r1="19.697716"
       sodipodi:cy="1012.7642"
       sodipodi:cx="335.87573"
       sodipodi:sides="5"
       id="path4186"
       style="fill:#2a00fc;fill-opacity:0.14736843;stroke:none;stroke-width:2;stroke-linecap:round;stroke-miterlimit:4;stroke-dasharray:none;stroke-opacity:1"
       sodipodi:type="star" />
    <path
       inkscape:transform-center-y="-0.11799335"
       inkscape:transform-center-x="-0.79110045"
       d="m 374.05949,1021.2494 c 0.92266,-1.384 5.26916,1.7593 6.8291,1.182 1.55994,-0.5774 2.8127,-5.793 4.41407,-5.3432 1.60137,0.4498 -0.045,5.5549 0.98616,6.8601 1.03114,1.3052 6.37866,0.8849 6.4457,2.5469 0.067,1.662 -5.29695,1.6738 -6.21961,3.0578 -0.92267,1.384 1.12952,6.3399 -0.43042,6.9173 -1.55994,0.5773 -3.22872,-4.5205 -4.8301,-4.9703 -1.60137,-0.4499 -5.68057,3.0333 -6.7117,1.7282 -1.03114,-1.3052 3.30149,-4.4676 3.23445,-6.1296 -0.067,-1.662 -4.64031,-4.4652 -3.71765,-5.8492 z"
       inkscape:randomized="0"
       inkscape:rounded="0.24"
       inkscape:flatsided="false"
       sodipodi:arg2="-1.9252715"
       sodipodi:arg1="-2.5535901"
       sodipodi:r2="4.7715096"
       sodipodi:r1="10.198039"
       sodipodi:cy="1026.9062"
       sodipodi:cx="382.54477"
       sodipodi:sides="5"
       id="path4188"
       style="fill:#2a00fc;fill-opacity:0.14736843;stroke:none;stroke-width:2;stroke-linecap:round;stroke-miterlimit:4;stroke-dasharray:none;stroke-opacity:1"
       sodipodi:type="star" />
    <path
       inkscape:transform-center-y="0.075724812"
       inkscape:transform-center-x="0.64227401"
       d="m 45.254834,1017.0069 c 0.807329,1.038 -2.636796,3.512 -2.593771,4.8263 0.04303,1.3143 3.641585,3.5578 2.903872,4.6463 -0.737713,1.0886 -4.154958,-1.4224 -5.391628,-0.9754 -1.23667,0.4471 -2.258337,4.5628 -3.521598,4.1976 -1.263261,-0.3652 0.06889,-4.3912 -0.738438,-5.4292 -0.807329,-1.038 -5.037314,-0.7378 -5.080339,-2.0521 -0.04303,-1.3143 4.197534,-1.2914 4.935248,-2.38 0.737713,-1.0886 -0.854895,-5.0188 0.381775,-5.4658 1.236671,-0.4471 2.525328,3.593 3.788589,3.9582 1.263261,0.3652 4.508961,-2.3639 5.31629,-1.3259 z"
       inkscape:randomized="0"
       inkscape:rounded="0.24"
       inkscape:flatsided="false"
       sodipodi:arg2="-0.032724638"
       sodipodi:arg1="-0.66104317"
       sodipodi:r2="3.7722094"
       sodipodi:r1="8.0622578"
       sodipodi:cy="1021.9566"
       sodipodi:cx="38.890873"
       sodipodi:sides="5"
       id="path4190"
       style="fill:#2a00fc;fill-opacity:0.14736843;stroke:none;stroke-width:2;stroke-linecap:round;stroke-miterlimit:4;stroke-dasharray:none;stroke-opacity:1"
       sodipodi:type="star" />
  </g>
  <g
     inkscape:label="plain"
     inkscape:groupmode="layer"
     id="layer1"
     transform="translate(0,-956.36216)"
     style="display:none"
     sodipodi:insensitive="true">
    <path
       style="fill:#556dff;fill-opacity:0.44888892;fill-rule:evenodd;stroke:none;stroke-width:1px;stroke-linecap:butt;stroke-linejoin:miter;stroke-opacity:1"
       d="m 14,978.3622 1,33 -2,33 263,1 138,5 5,-70 -138,1 -144,-9.0001 z"
       id="path4599"
       inkscape:connector-curvature="0"
       sodipodi:nodetypes="ccccccccc" />
    <path
       sodipodi:nodetypes="ccccccccc"
       inkscape:connector-curvature="0"
       id="path4525"
       d="m 7,968.3621 2,37.0001 -2,33 263,1 138,5 7,-75.0001 -131,3 -153,-6 z"
       style="fill:#556dff;fill-opacity:1;fill-rule:evenodd;stroke:none;stroke-width:1px;stroke-linecap:butt;stroke-linejoin:miter;stroke-opacity:1" />
    <path
       inkscape:connector-curvature="0"
       id="path4527"
       d="m 16,978.3622 79,-4.0001 123,-1 101,8.0001 87,-6 -4,39 1,23 -89,-6 -153,1 -92,-5 -52,6 z"
       style="fill:#55eeff;fill-opacity:1;fill-rule:evenodd;stroke:none;stroke-width:1px;stroke-linecap:butt;stroke-linejoin:miter;stroke-opacity:1"
       sodipodi:nodetypes="cccccccccccc" />
    <path
       sodipodi:type="star"
       style="fill:#2a00fc;fill-opacity:0.14736843;stroke:none;stroke-width:2;stroke-linecap:round;stroke-miterlimit:4;stroke-dasharray:none;stroke-opacity:1"
       id="path4146"
       sodipodi:sides="5"
       sodipodi:cx="36.769554"
       sodipodi:cy="988.72253"
       sodipodi:r1="9.0553846"
       sodipodi:r2="4.2368789"
       sodipodi:arg1="0.89605538"
       sodipodi:arg2="1.5243739"
       inkscape:flatsided="false"
       inkscape:rounded="0.24"
       inkscape:randomized="0"
       d="m 42.426408,995.7936 c -1.153327,0.92266 -3.98485,-2.90729 -5.460238,-2.83875 -1.475389,0.0685 -3.939635,4.14451 -5.173537,3.33275 -1.233901,-0.81176 1.533614,-4.68822 1.012509,-6.07022 -0.521106,-1.38199 -5.159082,-2.46609 -4.768348,-3.89044 0.390734,-1.42436 4.932676,0.01 6.086003,-0.91285 1.153327,-0.92266 0.751147,-5.66864 2.226535,-5.73718 1.475389,-0.0686 1.514947,4.69428 2.748849,5.50604 1.233901,0.81176 5.623316,-1.03732 6.144422,0.34468 0.521106,1.38199 -3.996387,2.89141 -4.387121,4.31577 -0.390735,1.42436 2.724253,5.02754 1.570926,5.9502 z"
       inkscape:transform-center-x="0.12063081"
       inkscape:transform-center-y="-0.68720132" />
    <path
       sodipodi:type="star"
       style="fill:#2a00fc;fill-opacity:0.14736843;stroke:none;stroke-width:2;stroke-linecap:round;stroke-miterlimit:4;stroke-dasharray:none;stroke-opacity:1"
       id="path4148"
       sodipodi:sides="5"
       sodipodi:cx="370.52396"
       sodipodi:cy="992.25806"
       sodipodi:r1="11.401754"
       sodipodi:r2="5.3347096"
       sodipodi:arg1="2.6224465"
       sodipodi:arg2="3.2507651"
       inkscape:flatsided="false"
       inkscape:rounded="0.24"
       inkscape:randomized="0"
       d="m 360.62446,997.91491 c -0.92266,-1.61466 4.39392,-4.38949 4.59655,-6.2381 0.20262,-1.84861 -4.38667,-5.70921 -3.13615,-7.08567 1.25051,-1.37646 5.53244,2.82244 7.35319,2.4439 1.82075,-0.37855 4.07423,-5.93621 5.76975,-5.17225 1.69552,0.76396 -0.97468,6.13385 -0.052,7.74851 0.92266,1.61466 6.90467,2.04043 6.70205,3.88904 -0.20262,1.84862 -6.13483,0.96849 -7.38535,2.34495 -1.25051,1.37646 0.1931,7.19731 -1.62765,7.57581 -1.82075,0.3785 -2.81685,-5.53529 -4.51237,-6.29925 -1.69553,-0.76396 -6.78534,2.40772 -7.708,0.79306 z"
       inkscape:transform-center-x="-0.66597509"
       inkscape:transform-center-y="0.35658217" />
    <path
       sodipodi:type="star"
       style="fill:#2a00fc;fill-opacity:0.14736843;stroke:none;stroke-width:2;stroke-linecap:round;stroke-miterlimit:4;stroke-dasharray:none;stroke-opacity:1"
       id="path4150"
       sodipodi:sides="5"
       sodipodi:cx="198.69701"
       sodipodi:cy="1016.2997"
       sodipodi:r1="12"
       sodipodi:r2="5.6146202"
       sodipodi:arg1="-2.3561945"
       sodipodi:arg2="-1.727876"
       inkscape:flatsided="false"
       inkscape:rounded="0.24"
       inkscape:randomized="0"
       d="m 190.21172,1007.8144 c 1.384,-1.384 5.6738,3.246 7.60697,2.9398 1.93316,-0.3062 4.58227,-6.0352 6.3262,-5.1466 1.74393,0.8886 -1.3338,6.3992 -0.44522,8.1431 0.88858,1.7439 7.15578,2.493 6.8496,4.4262 -0.30619,1.9332 -6.49813,0.7089 -7.88213,2.0929 -1.38399,1.384 -0.15976,7.576 -2.09292,7.8821 -1.93316,0.3062 -2.68227,-5.961 -4.4262,-6.8496 -1.74393,-0.8885 -7.25451,2.1892 -8.14309,0.4453 -0.88858,-1.744 4.8404,-4.3931 5.14658,-6.3262 0.30618,-1.9332 -4.32378,-6.223 -2.93979,-7.607 z"
       inkscape:transform-center-x="-0.53876148"
       inkscape:transform-center-y="0.53876148" />
    <path
       sodipodi:type="star"
       style="fill:#2a00fc;fill-opacity:0.14736843;stroke:none;stroke-width:2;stroke-linecap:round;stroke-miterlimit:4;stroke-dasharray:none;stroke-opacity:1"
       id="path4152"
       sodipodi:sides="5"
       sodipodi:cx="127.98632"
       sodipodi:cy="997.91492"
       sodipodi:r1="18.110769"
       sodipodi:r2="8.4737577"
       sodipodi:arg1="0.67474094"
       sodipodi:arg2="1.3030595"
       inkscape:flatsided="false"
       inkscape:rounded="0.24"
       inkscape:randomized="0"
       d="m 142.12846,1009.2286 c -1.84533,2.3067 -9.05169,-3.9233 -11.90041,-3.1418 -2.84872,0.7814 -5.86755,9.8164 -8.63155,8.7742 -2.76399,-1.0422 0.93418,-9.821 -0.68934,-12.2888 -1.62353,-2.4678 -11.14918,-2.5469 -11.0121,-5.49773 0.13708,-2.95077 9.62904,-2.14641 11.47437,-4.45307 1.84532,-2.30665 -1.02302,-11.39053 1.82569,-12.172 2.84872,-0.78147 5.0169,8.49448 7.7809,9.53669 2.764,1.04221 10.51691,-4.49282 12.14044,-2.02501 1.62352,2.4678 -6.52843,7.39629 -6.66551,10.34707 -0.13708,2.95075 7.52283,8.61385 5.67751,10.92045 z"
       inkscape:transform-center-x="1.3744026"
       inkscape:transform-center-y="-0.24126162" />
    <path
       sodipodi:type="star"
       style="fill:#2a00fc;fill-opacity:0.14736843;stroke:none;stroke-width:2;stroke-linecap:round;stroke-miterlimit:4;stroke-dasharray:none;stroke-opacity:1"
       id="path4154"
       sodipodi:sides="5"
       sodipodi:cx="270.8219"
       sodipodi:cy="1000.0363"
       sodipodi:r1="6.6708322"
       sodipodi:r2="3.1211822"
       sodipodi:arg1="-2.1293956"
       sodipodi:arg2="-1.5010771"
       inkscape:flatsided="false"
       inkscape:rounded="0.24"
       inkscape:randomized="0"
       d="m 267.28637,994.37946 c 0.92266,-0.57666 2.66756,2.46746 3.75296,2.54326 1.0854,0.0758 3.23646,-2.69627 4.07002,-1.99696 0.83356,0.6993 -1.52237,3.29949 -1.25905,4.35519 0.26332,1.05575 3.56442,2.24485 3.15692,3.25375 -0.40749,1.0088 -3.60844,-0.4283 -4.5311,0.1484 -0.92266,0.5766 -1.03353,4.0836 -2.11893,4.0078 -1.0854,-0.076 -0.70777,-3.5641 -1.54132,-4.2634 -0.83356,-0.6993 -4.20318,0.2789 -4.4665,-0.7768 -0.26332,-1.0557 3.17102,-1.77447 3.57851,-2.78333 0.40749,-1.00886 -1.56418,-3.91124 -0.64151,-4.48791 z"
       inkscape:transform-center-x="0.13339783"
       inkscape:transform-center-y="0.46317408" />
    <path
       sodipodi:type="star"
       style="fill:#2a00fc;fill-opacity:0.14736843;stroke:none;stroke-width:2;stroke-linecap:round;stroke-miterlimit:4;stroke-dasharray:none;stroke-opacity:1"
       id="path4156"
       sodipodi:sides="5"
       sodipodi:cx="335.87573"
       sodipodi:cy="1012.7642"
       sodipodi:r1="19.697716"
       sodipodi:r2="9.2162657"
       sodipodi:arg1="-2.7744188"
       sodipodi:arg2="-2.1461003"
       inkscape:flatsided="false"
       inkscape:rounded="0.24"
       inkscape:randomized="0"
       d="m 317.49096,1005.6932 c 1.15332,-2.9987 10.67467,1.0864 13.3703,-0.6617 2.69562,-1.748 2.84996,-12.10757 6.05825,-11.93732 3.20828,0.17024 2.26541,10.48792 4.76089,12.51142 2.49549,2.0236 12.3957,-1.0309 13.2252,2.0729 0.8295,3.1039 -9.27458,5.3955 -10.42791,8.3942 -1.15332,2.9986 4.81099,11.4704 2.11537,13.2184 -2.69563,1.7481 -7.99741,-7.1533 -11.20569,-7.3236 -3.20829,-0.1702 -9.42234,8.1201 -11.91783,6.0966 -2.49549,-2.0235 4.33191,-9.8165 3.5024,-12.9204 -0.8295,-3.1038 -10.63431,-6.4519 -9.48098,-9.4505 z"
       inkscape:transform-center-x="-0.29962944"
       inkscape:transform-center-y="-1.4589347" />
    <path
       sodipodi:type="star"
       style="fill:#2a00fc;fill-opacity:0.14736843;stroke:none;stroke-width:2;stroke-linecap:round;stroke-miterlimit:4;stroke-dasharray:none;stroke-opacity:1"
       id="path4158"
       sodipodi:sides="5"
       sodipodi:cx="382.54477"
       sodipodi:cy="1026.9062"
       sodipodi:r1="10.198039"
       sodipodi:r2="4.7715096"
       sodipodi:arg1="-2.5535901"
       sodipodi:arg2="-1.9252715"
       inkscape:flatsided="false"
       inkscape:rounded="0.24"
       inkscape:randomized="0"
       d="m 374.05949,1021.2494 c 0.92266,-1.384 5.26916,1.7593 6.8291,1.182 1.55994,-0.5774 2.8127,-5.793 4.41407,-5.3432 1.60137,0.4498 -0.045,5.5549 0.98616,6.8601 1.03114,1.3052 6.37866,0.8849 6.4457,2.5469 0.067,1.662 -5.29695,1.6738 -6.21961,3.0578 -0.92267,1.384 1.12952,6.3399 -0.43042,6.9173 -1.55994,0.5773 -3.22872,-4.5205 -4.8301,-4.9703 -1.60137,-0.4499 -5.68057,3.0333 -6.7117,1.7282 -1.03114,-1.3052 3.30149,-4.4676 3.23445,-6.1296 -0.067,-1.662 -4.64031,-4.4652 -3.71765,-5.8492 z"
       inkscape:transform-center-x="-0.79110045"
       inkscape:transform-center-y="-0.11799335" />
    <path
       sodipodi:type="star"
       style="fill:#2a00fc;fill-opacity:0.14736843;stroke:none;stroke-width:2;stroke-linecap:round;stroke-miterlimit:4;stroke-dasharray:none;stroke-opacity:1"
       id="path4160"
       sodipodi:sides="5"
       sodipodi:cx="38.890873"
       sodipodi:cy="1021.9566"
       sodipodi:r1="8.0622578"
       sodipodi:r2="3.7722094"
       sodipodi:arg1="-0.66104317"
       sodipodi:arg2="-0.032724638"
       inkscape:flatsided="false"
       inkscape:rounded="0.24"
       inkscape:randomized="0"
       d="m 45.254834,1017.0069 c 0.807329,1.038 -2.636796,3.512 -2.593771,4.8263 0.04303,1.3143 3.641585,3.5578 2.903872,4.6463 -0.737713,1.0886 -4.154958,-1.4224 -5.391628,-0.9754 -1.23667,0.4471 -2.258337,4.5628 -3.521598,4.1976 -1.263261,-0.3652 0.06889,-4.3912 -0.738438,-5.4292 -0.807329,-1.038 -5.037314,-0.7378 -5.080339,-2.0521 -0.04303,-1.3143 4.197534,-1.2914 4.935248,-2.38 0.737713,-1.0886 -0.854895,-5.0188 0.381775,-5.4658 1.236671,-0.4471 2.525328,3.593 3.788589,3.9582 1.263261,0.3652 4.508961,-2.3639 5.31629,-1.3259 z"
       inkscape:transform-center-x="0.64227401"
       inkscape:transform-center-y="0.075724812" />
  </g>
  <g
     transform="translate(0,-956.36216)"
     id="g5245"
     inkscape:groupmode="layer"
     inkscape:label="active"
     style="display:none"
     sodipodi:insensitive="true">
    <path
       sodipodi:nodetypes="ccccccccc"
       inkscape:connector-curvature="0"
       id="path5247"
       d="m 14,978.3622 1,33 -2,33 263,1 138,5 5,-70 -138,1 -144,-9.0001 z"
       style="fill:#006709;fill-opacity:0.48444447;fill-rule:evenodd;stroke:none;stroke-width:1px;stroke-linecap:butt;stroke-linejoin:miter;stroke-opacity:1" />
    <path
       style="fill:#006709;fill-opacity:1;fill-rule:evenodd;stroke:none;stroke-width:1px;stroke-linecap:butt;stroke-linejoin:miter;stroke-opacity:1"
       d="m 7,968.3621 2,37.0001 -2,33 263,1 138,5 7,-75.0001 -131,3 -153,-6 z"
       id="path5249"
       inkscape:connector-curvature="0"
       sodipodi:nodetypes="ccccccccc" />
    <path
       sodipodi:nodetypes="cccccccccccc"
       style="fill:#56ff46;fill-opacity:1;fill-rule:evenodd;stroke:none;stroke-width:1px;stroke-linecap:butt;stroke-linejoin:miter;stroke-opacity:1"
       d="m 16,978.3622 79,-4.0001 123,-1 101,8.0001 87,-6 -4,39 1,23 -89,-6 -153,1 -92,-5 -52,6 z"
       id="path5251"
       inkscape:connector-curvature="0" />
    <path
       sodipodi:type="star"
       style="display:inline;fill:#006b06;fill-opacity:0.14736843;stroke:none;stroke-width:2;stroke-linecap:round;stroke-miterlimit:4;stroke-dasharray:none;stroke-opacity:1"
       id="path4146-9"
       sodipodi:sides="5"
       sodipodi:cx="36.769554"
       sodipodi:cy="988.72253"
       sodipodi:r1="9.0553846"
       sodipodi:r2="4.2368789"
       sodipodi:arg1="0.89605538"
       sodipodi:arg2="1.5243739"
       inkscape:flatsided="false"
       inkscape:rounded="0.24"
       inkscape:randomized="0"
       d="m 42.426408,995.7936 c -1.153327,0.92266 -3.98485,-2.90729 -5.460238,-2.83875 -1.475389,0.0685 -3.939635,4.14451 -5.173537,3.33275 -1.233901,-0.81176 1.533614,-4.68822 1.012509,-6.07022 -0.521106,-1.38199 -5.159082,-2.46609 -4.768348,-3.89044 0.390734,-1.42436 4.932676,0.01 6.086003,-0.91285 1.153327,-0.92266 0.751147,-5.66864 2.226535,-5.73718 1.475389,-0.0686 1.514947,4.69428 2.748849,5.50604 1.233901,0.81176 5.623316,-1.03732 6.144422,0.34468 0.521106,1.38199 -3.996387,2.89141 -4.387121,4.31577 -0.390735,1.42436 2.724253,5.02754 1.570926,5.9502 z"
       inkscape:transform-center-x="0.12063081"
       inkscape:transform-center-y="-0.68720132" />
    <path
       sodipodi:type="star"
       style="display:inline;fill:#006b06;fill-opacity:0.14736843;stroke:none;stroke-width:2;stroke-linecap:round;stroke-miterlimit:4;stroke-dasharray:none;stroke-opacity:1"
       id="path4148-1"
       sodipodi:sides="5"
       sodipodi:cx="370.52396"
       sodipodi:cy="992.25806"
       sodipodi:r1="11.401754"
       sodipodi:r2="5.3347096"
       sodipodi:arg1="2.6224465"
       sodipodi:arg2="3.2507651"
       inkscape:flatsided="false"
       inkscape:rounded="0.24"
       inkscape:randomized="0"
       d="m 360.62446,997.91491 c -0.92266,-1.61466 4.39392,-4.38949 4.59655,-6.2381 0.20262,-1.84861 -4.38667,-5.70921 -3.13615,-7.08567 1.25051,-1.37646 5.53244,2.82244 7.35319,2.4439 1.82075,-0.37855 4.07423,-5.93621 5.76975,-5.17225 1.69552,0.76396 -0.97468,6.13385 -0.052,7.74851 0.92266,1.61466 6.90467,2.04043 6.70205,3.88904 -0.20262,1.84862 -6.13483,0.96849 -7.38535,2.34495 -1.25051,1.37646 0.1931,7.19731 -1.62765,7.57581 -1.82075,0.3785 -2.81685,-5.53529 -4.51237,-6.29925 -1.69553,-0.76396 -6.78534,2.40772 -7.708,0.79306 z"
       inkscape:transform-center-x="-0.66597509"
       inkscape:transform-center-y="0.35658217" />
    <path
       sodipodi:type="star"
       style="display:inline;fill:#006b06;fill-opacity:0.14736843;stroke:none;stroke-width:2;stroke-linecap:round;stroke-miterlimit:4;stroke-dasharray:none;stroke-opacity:1"
       id="path4150-2"
       sodipodi:sides="5"
       sodipodi:cx="198.69701"
       sodipodi:cy="1016.2997"
       sodipodi:r1="12"
       sodipodi:r2="5.6146202"
       sodipodi:arg1="-2.3561945"
       sodipodi:arg2="-1.727876"
       inkscape:flatsided="false"
       inkscape:rounded="0.24"
       inkscape:randomized="0"
       d="m 190.21172,1007.8144 c 1.384,-1.384 5.6738,3.246 7.60697,2.9398 1.93316,-0.3062 4.58227,-6.0352 6.3262,-5.1466 1.74393,0.8886 -1.3338,6.3992 -0.44522,8.1431 0.88858,1.7439 7.15578,2.493 6.8496,4.4262 -0.30619,1.9332 -6.49813,0.7089 -7.88213,2.0929 -1.38399,1.384 -0.15976,7.576 -2.09292,7.8821 -1.93316,0.3062 -2.68227,-5.961 -4.4262,-6.8496 -1.74393,-0.8885 -7.25451,2.1892 -8.14309,0.4453 -0.88858,-1.744 4.8404,-4.3931 5.14658,-6.3262 0.30618,-1.9332 -4.32378,-6.223 -2.93979,-7.607 z"
       inkscape:transform-center-x="-0.53876148"
       inkscape:transform-center-y="0.53876148" />
    <path
       sodipodi:type="star"
       style="display:inline;fill:#006b06;fill-opacity:0.14736843;stroke:none;stroke-width:2;stroke-linecap:round;stroke-miterlimit:4;stroke-dasharray:none;stroke-opacity:1"
       id="path4152-7"
       sodipodi:sides="5"
       sodipodi:cx="127.98632"
       sodipodi:cy="997.91492"
       sodipodi:r1="18.110769"
       sodipodi:r2="8.4737577"
       sodipodi:arg1="0.67474094"
       sodipodi:arg2="1.3030595"
       inkscape:flatsided="false"
       inkscape:rounded="0.24"
       inkscape:randomized="0"
       d="m 142.12846,1009.2286 c -1.84533,2.3067 -9.05169,-3.9233 -11.90041,-3.1418 -2.84872,0.7814 -5.86755,9.8164 -8.63155,8.7742 -2.76399,-1.0422 0.93418,-9.821 -0.68934,-12.2888 -1.62353,-2.4678 -11.14918,-2.5469 -11.0121,-5.49773 0.13708,-2.95077 9.62904,-2.14641 11.47437,-4.45307 1.84532,-2.30665 -1.02302,-11.39053 1.82569,-12.172 2.84872,-0.78147 5.0169,8.49448 7.7809,9.53669 2.764,1.04221 10.51691,-4.49282 12.14044,-2.02501 1.62352,2.4678 -6.52843,7.39629 -6.66551,10.34707 -0.13708,2.95075 7.52283,8.61385 5.67751,10.92045 z"
       inkscape:transform-center-x="1.3744026"
       inkscape:transform-center-y="-0.24126162" />
    <path
       sodipodi:type="star"
       style="display:inline;fill:#006b06;fill-opacity:0.14736843;stroke:none;stroke-width:2;stroke-linecap:round;stroke-miterlimit:4;stroke-dasharray:none;stroke-opacity:1"
       id="path4154-0"
       sodipodi:sides="5"
       sodipodi:cx="270.8219"
       sodipodi:cy="1000.0363"
       sodipodi:r1="6.6708322"
       sodipodi:r2="3.1211822"
       sodipodi:arg1="-2.1293956"
       sodipodi:arg2="-1.5010771"
       inkscape:flatsided="false"
       inkscape:rounded="0.24"
       inkscape:randomized="0"
       d="m 267.28637,994.37946 c 0.92266,-0.57666 2.66756,2.46746 3.75296,2.54326 1.0854,0.0758 3.23646,-2.69627 4.07002,-1.99696 0.83356,0.6993 -1.52237,3.29949 -1.25905,4.35519 0.26332,1.05575 3.56442,2.24485 3.15692,3.25375 -0.40749,1.0088 -3.60844,-0.4283 -4.5311,0.1484 -0.92266,0.5766 -1.03353,4.0836 -2.11893,4.0078 -1.0854,-0.076 -0.70777,-3.5641 -1.54132,-4.2634 -0.83356,-0.6993 -4.20318,0.2789 -4.4665,-0.7768 -0.26332,-1.0557 3.17102,-1.77447 3.57851,-2.78333 0.40749,-1.00886 -1.56418,-3.91124 -0.64151,-4.48791 z"
       inkscape:transform-center-x="0.13339783"
       inkscape:transform-center-y="0.46317408" />
    <path
       sodipodi:type="star"
       style="display:inline;fill:#006b06;fill-opacity:0.14736843;stroke:none;stroke-width:2;stroke-linecap:round;stroke-miterlimit:4;stroke-dasharray:none;stroke-opacity:1"
       id="path4156-9"
       sodipodi:sides="5"
       sodipodi:cx="335.87573"
       sodipodi:cy="1012.7642"
       sodipodi:r1="19.697716"
       sodipodi:r2="9.2162657"
       sodipodi:arg1="-2.7744188"
       sodipodi:arg2="-2.1461003"
       inkscape:flatsided="false"
       inkscape:rounded="0.24"
       inkscape:randomized="0"
       d="m 317.49096,1005.6932 c 1.15332,-2.9987 10.67467,1.0864 13.3703,-0.6617 2.69562,-1.748 2.84996,-12.10757 6.05825,-11.93732 3.20828,0.17024 2.26541,10.48792 4.76089,12.51142 2.49549,2.0236 12.3957,-1.0309 13.2252,2.0729 0.8295,3.1039 -9.27458,5.3955 -10.42791,8.3942 -1.15332,2.9986 4.81099,11.4704 2.11537,13.2184 -2.69563,1.7481 -7.99741,-7.1533 -11.20569,-7.3236 -3.20829,-0.1702 -9.42234,8.1201 -11.91783,6.0966 -2.49549,-2.0235 4.33191,-9.8165 3.5024,-12.9204 -0.8295,-3.1038 -10.63431,-6.4519 -9.48098,-9.4505 z"
       inkscape:transform-center-x="-0.29962944"
       inkscape:transform-center-y="-1.4589347" />
    <path
       sodipodi:type="star"
       style="display:inline;fill:#006b06;fill-opacity:0.14736843;stroke:none;stroke-width:2;stroke-linecap:round;stroke-miterlimit:4;stroke-dasharray:none;stroke-opacity:1"
       id="path4158-3"
       sodipodi:sides="5"
       sodipodi:cx="382.54477"
       sodipodi:cy="1026.9062"
       sodipodi:r1="10.198039"
       sodipodi:r2="4.7715096"
       sodipodi:arg1="-2.5535901"
       sodipodi:arg2="-1.9252715"
       inkscape:flatsided="false"
       inkscape:rounded="0.24"
       inkscape:randomized="0"
       d="m 374.05949,1021.2494 c 0.92266,-1.384 5.26916,1.7593 6.8291,1.182 1.55994,-0.5774 2.8127,-5.793 4.41407,-5.3432 1.60137,0.4498 -0.045,5.5549 0.98616,6.8601 1.03114,1.3052 6.37866,0.8849 6.4457,2.5469 0.067,1.662 -5.29695,1.6738 -6.21961,3.0578 -0.92267,1.384 1.12952,6.3399 -0.43042,6.9173 -1.55994,0.5773 -3.22872,-4.5205 -4.8301,-4.9703 -1.60137,-0.4499 -5.68057,3.0333 -6.7117,1.7282 -1.03114,-1.3052 3.30149,-4.4676 3.23445,-6.1296 -0.067,-1.662 -4.64031,-4.4652 -3.71765,-5.8492 z"
       inkscape:transform-center-x="-0.79110045"
       inkscape:transform-center-y="-0.11799335" />
    <path
       sodipodi:type="star"
       style="display:inline;fill:#006b06;fill-opacity:0.14736843;stroke:none;stroke-width:2;stroke-linecap:round;stroke-miterlimit:4;stroke-dasharray:none;stroke-opacity:1"
       id="path4160-6"
       sodipodi:sides="5"
       sodipodi:cx="38.890873"
       sodipodi:cy="1021.9566"
       sodipodi:r1="8.0622578"
       sodipodi:r2="3.7722094"
       sodipodi:arg1="-0.66104317"
       sodipodi:arg2="-0.032724638"
       inkscape:flatsided="false"
       inkscape:rounded="0.24"
       inkscape:randomized="0"
       d="m 45.254834,1017.0069 c 0.807329,1.038 -2.636796,3.512 -2.593771,4.8263 0.04303,1.3143 3.641585,3.5578 2.903872,4.6463 -0.737713,1.0886 -4.154958,-1.4224 -5.391628,-0.9754 -1.23667,0.4471 -2.258337,4.5628 -3.521598,4.1976 -1.263261,-0.3652 0.06889,-4.3912 -0.738438,-5.4292 -0.807329,-1.038 -5.037314,-0.7378 -5.080339,-2.0521 -0.04303,-1.3143 4.197534,-1.2914 4.935248,-2.38 0.737713,-1.0886 -0.854895,-5.0188 0.381775,-5.4658 1.236671,-0.4471 2.525328,3.593 3.788589,3.9582 1.263261,0.3652 4.508961,-2.3639 5.31629,-1.3259 z"
       inkscape:transform-center-x="0.64227401"
       inkscape:transform-center-y="0.075724812" />
  </g>
  <g
     style="display:none"
     inkscape:label="clicked"
     inkscape:groupmode="layer"
     id="g5274"
     transform="translate(0,-956.36216)"
     sodipodi:insensitive="true">
    <path
       style="fill:#929400;fill-opacity:0.49777778;fill-rule:evenodd;stroke:none;stroke-width:1px;stroke-linecap:butt;stroke-linejoin:miter;stroke-opacity:1"
       d="m 14,978.3622 1,33 -2,33 263,1 138,5 5,-70 -138,1 -144,-9.0001 z"
       id="path5276"
       inkscape:connector-curvature="0"
       sodipodi:nodetypes="ccccccccc" />
    <path
       sodipodi:nodetypes="ccccccccc"
       inkscape:connector-curvature="0"
       id="path5278"
       d="m 7,968.3621 2,37.0001 -2,33 263,1 138,5 7,-75.0001 -131,3 -153,-6 z"
       style="fill:#929400;fill-opacity:1;fill-rule:evenodd;stroke:none;stroke-width:1px;stroke-linecap:butt;stroke-linejoin:miter;stroke-opacity:1" />
    <path
       inkscape:connector-curvature="0"
       id="path5280"
       d="m 16,978.3622 79,-4.0001 123,-1 101,8.0001 87,-6 -4,39 1,23 -89,-6 -153,1 -92,-5 -52,6 z"
       style="fill:#ecff46;fill-opacity:1;fill-rule:evenodd;stroke:none;stroke-width:1px;stroke-linecap:butt;stroke-linejoin:miter;stroke-opacity:1"
       sodipodi:nodetypes="cccccccccccc" />
    <path
       sodipodi:type="star"
       style="display:inline;fill:#757e00;fill-opacity:0.14736843;stroke:none;stroke-width:2;stroke-linecap:round;stroke-miterlimit:4;stroke-dasharray:none;stroke-opacity:1"
       id="path4146-0"
       sodipodi:sides="5"
       sodipodi:cx="36.769554"
       sodipodi:cy="988.72253"
       sodipodi:r1="9.0553846"
       sodipodi:r2="4.2368789"
       sodipodi:arg1="0.89605538"
       sodipodi:arg2="1.5243739"
       inkscape:flatsided="false"
       inkscape:rounded="0.24"
       inkscape:randomized="0"
       d="m 42.426408,995.7936 c -1.153327,0.92266 -3.98485,-2.90729 -5.460238,-2.83875 -1.475389,0.0685 -3.939635,4.14451 -5.173537,3.33275 -1.233901,-0.81176 1.533614,-4.68822 1.012509,-6.07022 -0.521106,-1.38199 -5.159082,-2.46609 -4.768348,-3.89044 0.390734,-1.42436 4.932676,0.01 6.086003,-0.91285 1.153327,-0.92266 0.751147,-5.66864 2.226535,-5.73718 1.475389,-0.0686 1.514947,4.69428 2.748849,5.50604 1.233901,0.81176 5.623316,-1.03732 6.144422,0.34468 0.521106,1.38199 -3.996387,2.89141 -4.387121,4.31577 -0.390735,1.42436 2.724253,5.02754 1.570926,5.9502 z"
       inkscape:transform-center-x="0.12063081"
       inkscape:transform-center-y="-0.68720132" />
    <path
       sodipodi:type="star"
       style="display:inline;fill:#757e00;fill-opacity:0.14736843;stroke:none;stroke-width:2;stroke-linecap:round;stroke-miterlimit:4;stroke-dasharray:none;stroke-opacity:1"
       id="path4148-6"
       sodipodi:sides="5"
       sodipodi:cx="370.52396"
       sodipodi:cy="992.25806"
       sodipodi:r1="11.401754"
       sodipodi:r2="5.3347096"
       sodipodi:arg1="2.6224465"
       sodipodi:arg2="3.2507651"
       inkscape:flatsided="false"
       inkscape:rounded="0.24"
       inkscape:randomized="0"
       d="m 360.62446,997.91491 c -0.92266,-1.61466 4.39392,-4.38949 4.59655,-6.2381 0.20262,-1.84861 -4.38667,-5.70921 -3.13615,-7.08567 1.25051,-1.37646 5.53244,2.82244 7.35319,2.4439 1.82075,-0.37855 4.07423,-5.93621 5.76975,-5.17225 1.69552,0.76396 -0.97468,6.13385 -0.052,7.74851 0.92266,1.61466 6.90467,2.04043 6.70205,3.88904 -0.20262,1.84862 -6.13483,0.96849 -7.38535,2.34495 -1.25051,1.37646 0.1931,7.19731 -1.62765,7.57581 -1.82075,0.3785 -2.81685,-5.53529 -4.51237,-6.29925 -1.69553,-0.76396 -6.78534,2.40772 -7.708,0.79306 z"
       inkscape:transform-center-x="-0.66597509"
       inkscape:transform-center-y="0.35658217" />
    <path
       sodipodi:type="star"
       style="display:inline;fill:#757e00;fill-opacity:0.14736843;stroke:none;stroke-width:2;stroke-linecap:round;stroke-miterlimit:4;stroke-dasharray:none;stroke-opacity:1"
       id="path4150-26"
       sodipodi:sides="5"
       sodipodi:cx="198.69701"
       sodipodi:cy="1016.2997"
       sodipodi:r1="12"
       sodipodi:r2="5.6146202"
       sodipodi:arg1="-2.3561945"
       sodipodi:arg2="-1.727876"
       inkscape:flatsided="false"
       inkscape:rounded="0.24"
       inkscape:randomized="0"
       d="m 190.21172,1007.8144 c 1.384,-1.384 5.6738,3.246 7.60697,2.9398 1.93316,-0.3062 4.58227,-6.0352 6.3262,-5.1466 1.74393,0.8886 -1.3338,6.3992 -0.44522,8.1431 0.88858,1.7439 7.15578,2.493 6.8496,4.4262 -0.30619,1.9332 -6.49813,0.7089 -7.88213,2.0929 -1.38399,1.384 -0.15976,7.576 -2.09292,7.8821 -1.93316,0.3062 -2.68227,-5.961 -4.4262,-6.8496 -1.74393,-0.8885 -7.25451,2.1892 -8.14309,0.4453 -0.88858,-1.744 4.8404,-4.3931 5.14658,-6.3262 0.30618,-1.9332 -4.32378,-6.223 -2.93979,-7.607 z"
       inkscape:transform-center-x="-0.53876148"
       inkscape:transform-center-y="0.53876148" />
    <path
       sodipodi:type="star"
       style="display:inline;fill:#757e00;fill-opacity:0.14736843;stroke:none;stroke-width:2;stroke-linecap:round;stroke-miterlimit:4;stroke-dasharray:none;stroke-opacity:1"
       id="path4152-1"
       sodipodi:sides="5"
       sodipodi:cx="127.98632"
       sodipodi:cy="997.91492"
       sodipodi:r1="18.110769"
       sodipodi:r2="8.4737577"
       sodipodi:arg1="0.67474094"
       sodipodi:arg2="1.3030595"
       inkscape:flatsided="false"
       inkscape:rounded="0.24"
       inkscape:randomized="0"
       d="m 142.12846,1009.2286 c -1.84533,2.3067 -9.05169,-3.9233 -11.90041,-3.1418 -2.84872,0.7814 -5.86755,9.8164 -8.63155,8.7742 -2.76399,-1.0422 0.93418,-9.821 -0.68934,-12.2888 -1.62353,-2.4678 -11.14918,-2.5469 -11.0121,-5.49773 0.13708,-2.95077 9.62904,-2.14641 11.47437,-4.45307 1.84532,-2.30665 -1.02302,-11.39053 1.82569,-12.172 2.84872,-0.78147 5.0169,8.49448 7.7809,9.53669 2.764,1.04221 10.51691,-4.49282 12.14044,-2.02501 1.62352,2.4678 -6.52843,7.39629 -6.66551,10.34707 -0.13708,2.95075 7.52283,8.61385 5.67751,10.92045 z"
       inkscape:transform-center-x="1.3744026"
       inkscape:transform-center-y="-0.24126162" />
    <path
       sodipodi:type="star"
       style="display:inline;fill:#757e00;fill-opacity:0.14736843;stroke:none;stroke-width:2;stroke-linecap:round;stroke-miterlimit:4;stroke-dasharray:none;stroke-opacity:1"
       id="path4154-8"
       sodipodi:sides="5"
       sodipodi:cx="270.8219"
       sodipodi:cy="1000.0363"
       sodipodi:r1="6.6708322"
       sodipodi:r2="3.1211822"
       sodipodi:arg1="-2.1293956"
       sodipodi:arg2="-1.5010771"
       inkscape:flatsided="false"
       inkscape:rounded="0.24"
       inkscape:randomized="0"
       d="m 267.28637,994.37946 c 0.92266,-0.57666 2.66756,2.46746 3.75296,2.54326 1.0854,0.0758 3.23646,-2.69627 4.07002,-1.99696 0.83356,0.6993 -1.52237,3.29949 -1.25905,4.35519 0.26332,1.05575 3.56442,2.24485 3.15692,3.25375 -0.40749,1.0088 -3.60844,-0.4283 -4.5311,0.1484 -0.92266,0.5766 -1.03353,4.0836 -2.11893,4.0078 -1.0854,-0.076 -0.70777,-3.5641 -1.54132,-4.2634 -0.83356,-0.6993 -4.20318,0.2789 -4.4665,-0.7768 -0.26332,-1.0557 3.17102,-1.77447 3.57851,-2.78333 0.40749,-1.00886 -1.56418,-3.91124 -0.64151,-4.48791 z"
       inkscape:transform-center-x="0.13339783"
       inkscape:transform-center-y="0.46317408" />
    <path
       sodipodi:type="star"
       style="display:inline;fill:#757e00;fill-opacity:0.14736843;stroke:none;stroke-width:2;stroke-linecap:round;stroke-miterlimit:4;stroke-dasharray:none;stroke-opacity:1"
       id="path4156-7"
       sodipodi:sides="5"
       sodipodi:cx="335.87573"
       sodipodi:cy="1012.7642"
       sodipodi:r1="19.697716"
       sodipodi:r2="9.2162657"
       sodipodi:arg1="-2.7744188"
       sodipodi:arg2="-2.1461003"
       inkscape:flatsided="false"
       inkscape:rounded="0.24"
       inkscape:randomized="0"
       d="m 317.49096,1005.6932 c 1.15332,-2.9987 10.67467,1.0864 13.3703,-0.6617 2.69562,-1.748 2.84996,-12.10757 6.05825,-11.93732 3.20828,0.17024 2.26541,10.48792 4.76089,12.51142 2.49549,2.0236 12.3957,-1.0309 13.2252,2.0729 0.8295,3.1039 -9.27458,5.3955 -10.42791,8.3942 -1.15332,2.9986 4.81099,11.4704 2.11537,13.2184 -2.69563,1.7481 -7.99741,-7.1533 -11.20569,-7.3236 -3.20829,-0.1702 -9.42234,8.1201 -11.91783,6.0966 -2.49549,-2.0235 4.33191,-9.8165 3.5024,-12.9204 -0.8295,-3.1038 -10.63431,-6.4519 -9.48098,-9.4505 z"
       inkscape:transform-center-x="-0.29962944"
       inkscape:transform-center-y="-1.4589347" />
    <path
       sodipodi:type="star"
       style="display:inline;fill:#757e00;fill-opacity:0.14736843;stroke:none;stroke-width:2;stroke-linecap:round;stroke-miterlimit:4;stroke-dasharray:none;stroke-opacity:1"
       id="path4158-9"
       sodipodi:sides="5"
       sodipodi:cx="382.54477"
       sodipodi:cy="1026.9062"
       sodipodi:r1="10.198039"
       sodipodi:r2="4.7715096"
       sodipodi:arg1="-2.5535901"
       sodipodi:arg2="-1.9252715"
       inkscape:flatsided="false"
       inkscape:rounded="0.24"
       inkscape:randomized="0"
       d="m 374.05949,1021.2494 c 0.92266,-1.384 5.26916,1.7593 6.8291,1.182 1.55994,-0.5774 2.8127,-5.793 4.41407,-5.3432 1.60137,0.4498 -0.045,5.5549 0.98616,6.8601 1.03114,1.3052 6.37866,0.8849 6.4457,2.5469 0.067,1.662 -5.29695,1.6738 -6.21961,3.0578 -0.92267,1.384 1.12952,6.3399 -0.43042,6.9173 -1.55994,0.5773 -3.22872,-4.5205 -4.8301,-4.9703 -1.60137,-0.4499 -5.68057,3.0333 -6.7117,1.7282 -1.03114,-1.3052 3.30149,-4.4676 3.23445,-6.1296 -0.067,-1.662 -4.64031,-4.4652 -3.71765,-5.8492 z"
       inkscape:transform-center-x="-0.79110045"
       inkscape:transform-center-y="-0.11799335" />
    <path
       sodipodi:type="star"
       style="display:inline;fill:#757e00;fill-opacity:0.14736843;stroke:none;stroke-width:2;stroke-linecap:round;stroke-miterlimit:4;stroke-dasharray:none;stroke-opacity:1"
       id="path4160-2"
       sodipodi:sides="5"
       sodipodi:cx="38.890873"
       sodipodi:cy="1021.9566"
       sodipodi:r1="8.0622578"
       sodipodi:r2="3.7722094"
       sodipodi:arg1="-0.66104317"
       sodipodi:arg2="-0.032724638"
       inkscape:flatsided="false"
       inkscape:rounded="0.24"
       inkscape:randomized="0"
       d="m 45.254834,1017.0069 c 0.807329,1.038 -2.636796,3.512 -2.593771,4.8263 0.04303,1.3143 3.641585,3.5578 2.903872,4.6463 -0.737713,1.0886 -4.154958,-1.4224 -5.391628,-0.9754 -1.23667,0.4471 -2.258337,4.5628 -3.521598,4.1976 -1.263261,-0.3652 0.06889,-4.3912 -0.738438,-5.4292 -0.807329,-1.038 -5.037314,-0.7378 -5.080339,-2.0521 -0.04303,-1.3143 4.197534,-1.2914 4.935248,-2.38 0.737713,-1.0886 -0.854895,-5.0188 0.381775,-5.4658 1.236671,-0.4471 2.525328,3.593 3.788589,3.9582 1.263261,0.3652 4.508961,-2.3639 5.31629,-1.3259 z"
       inkscape:transform-center-x="0.64227401"
       inkscape:transform-center-y="0.075724812" />
  </g>
</svg>
