<?xml version="1.0" encoding="UTF-8" standalone="no"?>
<!-- Created with Inkscape (http://www.inkscape.org/) -->

<svg
   xmlns:dc="http://purl.org/dc/elements/1.1/"
   xmlns:cc="http://creativecommons.org/ns#"
   xmlns:rdf="http://www.w3.org/1999/02/22-rdf-syntax-ns#"
   xmlns:svg="http://www.w3.org/2000/svg"
   xmlns="http://www.w3.org/2000/svg"
   xmlns:sodipodi="http://sodipodi.sourceforge.net/DTD/sodipodi-0.dtd"
   xmlns:inkscape="http://www.inkscape.org/namespaces/inkscape"
   width="256"
   height="256"
   viewBox="0 0 256 256"
   id="svg2"
   version="1.1"
   inkscape:version="0.91 r13725"
   sodipodi:docname="menu-bg.svg">
  <defs
     id="defs4" />
  <sodipodi:namedview
     id="base"
     pagecolor="#ffffff"
     bordercolor="#666666"
     borderopacity="1.0"
     inkscape:pageopacity="0.0"
     inkscape:pageshadow="2"
     inkscape:zoom="2.8284271"
     inkscape:cx="188.90383"
     inkscape:cy="139.41684"
     inkscape:document-units="px"
     inkscape:current-layer="layer1"
     showgrid="false"
     units="px"
     inkscape:showpageshadow="false"
     inkscape:window-width="1920"
     inkscape:window-height="1017"
     inkscape:window-x="-8"
     inkscape:window-y="-8"
     inkscape:window-maximized="1" />
  <metadata
     id="metadata7">
    <rdf:RDF>
      <cc:Work
         rdf:about="">
        <dc:format>image/svg+xml</dc:format>
        <dc:type
           rdf:resource="http://purl.org/dc/dcmitype/StillImage" />
        <dc:title></dc:title>
      </cc:Work>
    </rdf:RDF>
  </metadata>
  <g
     inkscape:label="Laag 1"
     inkscape:groupmode="layer"
     id="layer1"
     transform="translate(0,-796.36216)">
    <rect
       style="fill:#9ca8ff;fill-opacity:1;stroke:none;stroke-width:40;stroke-linejoin:miter;stroke-miterlimit:4;stroke-dasharray:none;stroke-opacity:1"
       id="rect4136"
       width="256"
       height="256"
       x="0"
       y="796.36218" />
    <path
       sodipodi:type="star"
       style="fill:none;fill-opacity:1;stroke:#c9cfff;stroke-width:10;stroke-linejoin:miter;stroke-miterlimit:4;stroke-dasharray:none;stroke-opacity:1"
       id="path4138"
       sodipodi:sides="5"
       sodipodi:cx="56.426407"
       sodipodi:cy="855.62354"
       sodipodi:r1="37.118237"
       sodipodi:r2="19.534334"
       sodipodi:arg1="0.70352661"
       sodipodi:arg2="1.3222731"
       inkscape:flatsided="false"
       inkscape:rounded="0.25"
       inkscape:randomized="0"
       d="m 84.731495,879.63573 c -3.844281,4.62053 -17.660314,-6.50063 -23.500173,-5.07802 -5.921713,1.44255 -13.23454,17.66528 -18.895116,15.40574 -5.582332,-2.22831 0.725128,-18.80476 -2.43247,-23.91919 -3.201856,-5.18611 -20.890375,-7.12792 -20.49064,-13.20969 0.39421,-5.99769 18.108467,-5.12135 21.996824,-9.70485 3.942857,-4.64774 0.323578,-22.07057 6.231204,-23.56977 5.825966,-1.47848 10.46652,15.63959 16.027254,17.92126 5.638676,2.31365 21.090358,-6.51245 24.341736,-1.35724 3.206436,5.08395 -11.639802,14.78715 -12.091436,20.7808 -0.457964,6.07766 12.71098,18.04567 8.812817,22.73096 z"
       inkscape:transform-center-x="2.626996"
       inkscape:transform-center-y="-2.9322085" />
    <path
       style="fill:#c9cfff;fill-opacity:1;fill-rule:evenodd;stroke:none;stroke-width:1px;stroke-linecap:butt;stroke-linejoin:miter;stroke-opacity:1"
       d="m 190.86523,960.49302 c -8.22765,0.15025 -18.83017,9.11223 -28.61523,13.11914 8.24284,0.37299 13.49325,-0.73802 20.65991,-0.98482 6.63296,-0.22842 15.04764,5.96366 21.34009,9.98482 -2.0226,-17.02246 -6.98548,-22.236 -13.38477,-22.11914 z m 34.88282,5.2207 c -5.84272,0.1415 -15.90677,1.73391 -17.99805,19.14844 13.33333,-9.91878 28.16667,-12.9976 41.5,-4.25 -8.01745,-7.90426 -15.98989,-15.08036 -23.50195,-14.89844 z m -43.00782,11.03321 c -15.68301,-0.4432 -21.14,24.77037 -26.49023,47.86527 34.02092,-23.4309 27.40797,-37.07877 48,-36.00004 -8.82742,-8.1879 -15.83718,-11.70493 -21.50977,-11.86523 z m 46.52539,2.39062 c -5.59431,0.16783 -12.01703,3.2913 -19.01562,8.47461 10.0706,4.54715 18.35939,10.33873 21.89669,22.57194 6.32467,5.1642 12.95579,10.1753 19.10331,15.4281 -2.04836,-33.02822 -9.712,-45.99987 -20.87695,-46.46879 -0.36552,-0.0154 -0.73447,-0.0171 -1.10743,-0.006 z M 204.25,990.61216 c -31.29357,8.59833 -20.80098,33.69304 -16,51.00004 7.27031,-19.3649 32.56892,-19.7156 16,-51.00004 z m 8,27.00004 c 7.012,3.988 11.60935,10.3906 16,17 1.01999,-10.403 1.41467,-15.1838 -0.0879,-19.3907 -1.31356,-14.8153 -11.39927,-20.65723 -18.02738,-24.14288 3.48122,9.49648 5.30565,18.45718 2.11528,26.53358 z"
       id="path4140"
       inkscape:connector-curvature="0"
       sodipodi:nodetypes="scscssccssccsccccssccccccccc" />
    <g
       id="g4167"
       transform="matrix(0.92218514,-0.38674872,0.38674872,0.92218514,-375.71339,91.082437)">
      <path
         sodipodi:nodetypes="ccscccscscsccsc"
         inkscape:connector-curvature="0"
         id="path4156"
         transform="translate(0,796.36216)"
         d="m 17.783203,184.83008 -0.574219,1.61523 c -9.6263885,25.17106 -4.49089,60.26087 26.789063,60.16797 34.643017,-0.1029 36.183847,-36.889 27.087891,-59.70312 l -0.716797,-1.72657 C 61.412779,174.98974 36.209576,173.27585 17.783203,184.83008 Z m 27.117188,-3.4043 c 9.944944,0 18.006688,2.28411 18.005859,5.10156 -0.003,2.81669 -8.063603,5.09961 -18.005859,5.09961 -9.942256,0 -18.002888,-2.28292 -18.00586,-5.09961 -8.29e-4,-2.81745 8.060916,-5.10156 18.00586,-5.10156 z m -18.822266,10.11133 c 9.548182,7.76306 24.981507,6.43244 36.443359,1.04492 6.364348,19.27774 5.404819,44.80958 -19.52539,44.08008 -26.796434,-0.7841 -21.318716,-31.57884 -16.917969,-45.125 z"
         style="color:#000000;font-style:normal;font-variant:normal;font-weight:normal;font-stretch:normal;font-size:medium;line-height:normal;font-family:sans-serif;text-indent:0;text-align:start;text-decoration:none;text-decoration-line:none;text-decoration-style:solid;text-decoration-color:#000000;letter-spacing:normal;word-spacing:normal;text-transform:none;direction:ltr;block-progression:tb;writing-mode:lr-tb;baseline-shift:baseline;text-anchor:start;white-space:normal;clip-rule:nonzero;display:inline;overflow:visible;visibility:visible;opacity:1;isolation:auto;mix-blend-mode:normal;color-interpolation:sRGB;color-interpolation-filters:linearRGB;solid-color:#000000;solid-opacity:1;fill:#d0d2ff;fill-opacity:1;fill-rule:evenodd;stroke:none;stroke-width:10;stroke-linecap:butt;stroke-linejoin:miter;stroke-miterlimit:4;stroke-dasharray:none;stroke-dashoffset:0;stroke-opacity:1;color-rendering:auto;image-rendering:auto;shape-rendering:auto;text-rendering:auto;enable-background:accumulate" />
      <path
         sodipodi:nodetypes="ccccccc"
         inkscape:connector-curvature="0"
         id="path4165"
         d="m 60.811183,958.31696 c 8.738415,-2.18385 14.503158,-0.4028 20.506097,1.06066 l -0.353553,4.59619 c -5.656854,-0.77414 -11.313709,-1.62527 -16.970563,0.35356 -4.002031,5.89746 -6.588119,11.08955 -7.778175,19.79899 -1.178511,1.41421 -3.299832,1.41421 -6.363961,0 1.589225,-10.18535 10.960155,-25.8094 10.960155,-25.8094 z"
         style="fill:#d0d2ff;fill-opacity:1;fill-rule:evenodd;stroke:none;stroke-width:1px;stroke-linecap:butt;stroke-linejoin:miter;stroke-opacity:1" />
    </g>
    <path
       inkscape:transform-center-y="-2.1495628"
       inkscape:transform-center-x="1.9258308"
       d="m 246.72742,832.77563 c -1.29639,2.51631 -8.65717,-2.12841 -11.2738,-1.04876 -2.91471,1.20263 -5.47044,9.74906 -8.58245,9.24182 -2.79375,-0.45536 -0.65097,-8.89117 -2.48636,-11.04611 -2.04447,-2.40041 -10.96236,-2.19007 -11.44162,-5.3065 -0.43024,-2.79773 8.25485,-3.36663 9.73715,-5.77811 1.65115,-2.68617 -1.30468,-11.10259 1.51113,-12.52143 2.52785,-1.27373 5.75274,6.81049 8.50425,7.47505 3.06494,0.74027 10.15603,-4.67171 12.37555,-2.43216 1.99254,2.01052 -4.69946,7.57574 -4.48123,10.39793 0.24308,3.14369 7.58144,8.21532 6.13738,11.01827 z"
       inkscape:randomized="0"
       inkscape:rounded="0.25"
       inkscape:flatsided="false"
       sodipodi:arg2="1.1040626"
       sodipodi:arg1="0.55114074"
       sodipodi:r2="9.539957"
       sodipodi:r1="18.272104"
       sodipodi:cy="823.20727"
       sodipodi:cx="231.16091"
       sodipodi:sides="5"
       id="path4171"
       style="fill:#d3d4ff;fill-opacity:1;stroke:none;stroke-width:7;stroke-linejoin:miter;stroke-miterlimit:4;stroke-dasharray:none;stroke-opacity:1"
       sodipodi:type="star" />
    <path
       style="fill:#c9cfff;fill-opacity:1;fill-rule:evenodd;stroke:none;stroke-width:1px;stroke-linecap:butt;stroke-linejoin:miter;stroke-opacity:1"
       d="M 128.12695 112.52734 C 115.34398 112.42009 101.49926 120.48484 90.505859 128.44922 C 91.595219 128.23871 91.190829 132.02965 92.292969 131.82227 C 113.20536 127.88766 141.03387 129.04304 155.61719 146.17383 L 154.55859 155.58594 L 161.72656 154.12109 L 159.375 145.64062 C 152.62982 120.91507 140.90992 112.6346 128.12695 112.52734 z M 128.3125 119.53906 C 138.62944 119.81974 148.13434 125.54575 156 142.25 C 141.34779 114.18661 118.92872 120.17793 95.75 129.5 C 106.86659 124.42304 117.99556 119.25839 128.3125 119.53906 z M 115.13086 131.58398 C 107.6454 136.74667 101.02268 143.73521 94.128906 150.32617 L 96.003906 154.20117 C 113.0161 144.03323 127.82928 137.04791 151.89648 145.06055 C 140.99214 135.32007 130.17577 133.93475 115.13086 131.58398 z M 132.50195 143.94141 C 128.9199 143.97115 125.03801 144.25739 120.75977 144.86914 L 110.75586 153.95117 L 113.50391 156.45117 C 122.02744 147.8374 134.16529 148.14198 152.86914 146.74414 C 146.81849 145.05319 140.38247 143.87596 132.50195 143.94141 z "
       transform="translate(0,796.36216)"
       id="path4173" />
    <path
       style="fill:#d3d4ff;fill-opacity:1;fill-rule:evenodd;stroke:none;stroke-width:1px;stroke-linecap:butt;stroke-linejoin:miter;stroke-opacity:1"
       d="m 154.42528,40.094165 c -0.74142,-3.582051 -5.46931,-11.298778 -5.75536,-15.14104 -1.88112,5.716834 -3.47769,11.402243 -2.75781,16.830078 -3.41872,-2.272301 -6.40072,-4.611784 -12.70899,-5.283203 3.49089,5.1443 4.59266,6.206705 6.35352,8.966797 -5.31664,-0.914955 -11.15357,2.335543 -15.45898,6.180065 5.41753,-0.701379 9.24327,0.722808 14.08287,2.622127 -8.7283,3.363813 -10.70977,4.532026 -14.22741,14.481011 0,0 9.90206,-6.59794 17,-5.5 -8.17369,5.20825 -9.69745,11.60171 -1.5,22 -0.79287,-5.978977 0.75551,-11.338373 8.0879,-12.642578 -2.18089,2.305748 -4.43356,4.495077 -2.23047,10.152344 1.17115,-3.74682 3.09234,-6.7436 6.61328,-8.140625 2.82588,3.541393 1.73807,7.821405 1.42578,10.796875 7.61002,2.78613 6.1396,7.124909 10.18555,12.287109 3.26665,-1.27501 9.53216,0.885345 12.79882,4.890625 3.33326,-1.0758 6.51832,-2.75223 11.13672,1.3125 4.2059,-3.45672 8.45389,-6.695536 13.31446,-6.878906 -0.69364,-4.61625 -0.53631,-9.018887 4.04492,-12.316406 -3.98018,-5.228551 -4.27096,-10.089179 -3.59961,-13.324219 -3.58015,-2.32376 -6.10665,-4.684535 -5.69141,-9.671875 -5.226,-1.50347 -8.99681,-4.46122 -11.55664,-8.63086 -2.60324,-1.338543 -3.35837,1.543182 -7.99587,-2.889592 3.55823,-2.408293 5.27574,-3.412612 9.80535,-3.852293 -3.8455,-2.88765 -7.5387,-2.941438 -11.2626,-1.941708 C 177.91533,37.112703 183.70313,38 183.70312,38 c -8.62076,-6.83023 -14.93001,-3.416394 -18.84315,4.055456 -0.0367,-9.07401 -0.59609,-9.935216 4.09315,-16.805456 -10.18494,4.075271 -12.37298,8.874779 -14.52784,14.844165 z"
       transform="translate(0,796.36216)"
       id="path4182"
       inkscape:connector-curvature="0"
       sodipodi:nodetypes="ccccccccccccccccccccccccccccc" />
    <path
       sodipodi:type="star"
       style="fill:#b3beff;fill-opacity:1;stroke:none;stroke-width:7;stroke-linejoin:miter;stroke-miterlimit:4;stroke-dasharray:none;stroke-opacity:1"
       id="path4193"
       sodipodi:sides="5"
       sodipodi:cx="220.97412"
       sodipodi:cy="925.93335"
       sodipodi:r1="8.8236504"
       sodipodi:r2="4.6068726"
       sodipodi:arg1="0.55114074"
       sodipodi:arg2="1.1040626"
       inkscape:flatsided="false"
       inkscape:rounded="0.25"
       inkscape:randomized="0"
       d="m 228.49123,930.55394 c -0.62604,1.21512 -4.18057,-1.02783 -5.44415,-0.50646 -1.40751,0.58077 -2.64169,4.70786 -4.14448,4.46291 -1.34911,-0.21991 -0.31435,-4.29358 -1.20067,-5.3342 -0.98729,-1.15916 -5.29377,-1.05759 -5.52519,-2.56253 -0.20776,-1.35103 3.98629,-1.62575 4.70209,-2.79026 0.79734,-1.29716 -0.63003,-5.36148 0.72973,-6.04663 1.22071,-0.61508 2.77802,3.2888 4.10673,3.60972 1.48007,0.35747 4.90438,-2.25599 5.97619,-1.1745 0.96219,0.97089 -2.26939,3.65835 -2.164,5.02119 0.11739,1.5181 3.66111,3.96721 2.96375,5.32076 z"
       inkscape:transform-center-x="-0.96298016"
       inkscape:transform-center-y="-0.3614641"
       transform="matrix(0.5812429,0.81373011,-0.81373011,0.5812429,847.12649,208.16927)" />
    <path
       transform="matrix(0.5812429,0.81373011,-0.81373011,0.5812429,660.80385,204.63374)"
       inkscape:transform-center-y="-0.3614641"
       inkscape:transform-center-x="-0.96298016"
       d="m 228.49123,930.55394 c -0.62604,1.21512 -4.18057,-1.02783 -5.44415,-0.50646 -1.40751,0.58077 -2.64169,4.70786 -4.14448,4.46291 -1.34911,-0.21991 -0.31435,-4.29358 -1.20067,-5.3342 -0.98729,-1.15916 -5.29377,-1.05759 -5.52519,-2.56253 -0.20776,-1.35103 3.98629,-1.62575 4.70209,-2.79026 0.79734,-1.29716 -0.63003,-5.36148 0.72973,-6.04663 1.22071,-0.61508 2.77802,3.2888 4.10673,3.60972 1.48007,0.35747 4.90438,-2.25599 5.97619,-1.1745 0.96219,0.97089 -2.26939,3.65835 -2.164,5.02119 0.11739,1.5181 3.66111,3.96721 2.96375,5.32076 z"
       inkscape:randomized="0"
       inkscape:rounded="0.25"
       inkscape:flatsided="false"
       sodipodi:arg2="1.1040626"
       sodipodi:arg1="0.55114074"
       sodipodi:r2="4.6068726"
       sodipodi:r1="8.8236504"
       sodipodi:cy="925.93335"
       sodipodi:cx="220.97412"
       sodipodi:sides="5"
       id="path4195"
       style="fill:#b3beff;fill-opacity:1;stroke:none;stroke-width:7;stroke-linejoin:miter;stroke-miterlimit:4;stroke-dasharray:none;stroke-opacity:1"
       sodipodi:type="star" />
    <path
       sodipodi:type="star"
       style="fill:#b3beff;fill-opacity:1;stroke:none;stroke-width:0;stroke-linejoin:miter;stroke-miterlimit:4;stroke-dasharray:none;stroke-opacity:1"
       id="path4197"
       sodipodi:sides="5"
       sodipodi:cx="190.91882"
       sodipodi:cy="874.17125"
       sodipodi:r1="5.3033009"
       sodipodi:r2="2.7688799"
       sodipodi:arg1="-1.5707963"
       sodipodi:arg2="-0.9424778"
       inkscape:flatsided="false"
       inkscape:rounded="0.25"
       inkscape:randomized="0"
       d="m 190.91882,868.86796 c 0.86719,0 0.92594,2.55352 1.62751,3.06323 0.70157,0.50972 3.14826,-0.22348 3.41623,0.60126 0.26798,0.82475 -2.1424,1.6697 -2.41038,2.49445 -0.26797,0.82474 1.18541,2.92511 0.48385,3.43483 -0.70157,0.50971 -2.25002,-1.52159 -3.11721,-1.52159 -0.86718,0 -2.41563,2.0313 -3.1172,1.52159 -0.70157,-0.50972 0.75182,-2.61009 0.48384,-3.43483 -0.26797,-0.82475 -2.67835,-1.6697 -2.41038,-2.49445 0.26798,-0.82474 2.71467,-0.0915 3.41624,-0.60126 0.70156,-0.50971 0.76032,-3.06323 1.6275,-3.06323 z"
       inkscape:transform-center-y="-0.46538653" />
    <path
       sodipodi:type="star"
       style="fill:#b3beff;fill-opacity:1;stroke:none;stroke-width:0;stroke-linejoin:miter;stroke-miterlimit:4;stroke-dasharray:none;stroke-opacity:1"
       id="path4199"
       sodipodi:sides="5"
       sodipodi:cx="165.463"
       sodipodi:cy="873.46414"
       sodipodi:r1="6.0104074"
       sodipodi:r2="3.1380639"
       sodipodi:arg1="3.1415927"
       sodipodi:arg2="3.7699112"
       inkscape:flatsided="false"
       inkscape:rounded="0.25"
       inkscape:randomized="0"
       d="m 159.45259,873.46411 c 0,-0.98281 2.89398,-1.0494 3.47166,-1.84451 0.57768,-0.79511 -0.25328,-3.56802 0.68143,-3.87173 0.93471,-0.3037 1.89233,2.42806 2.82703,2.73177 0.93471,0.3037 3.31513,-1.34347 3.89281,-0.54836 0.57768,0.79511 -1.72446,2.55002 -1.72446,3.53283 0,0.98281 2.30214,2.73772 1.72446,3.53283 -0.57768,0.79511 -2.9581,-0.85206 -3.89281,-0.54835 -0.93471,0.3037 -1.89232,3.03546 -2.82703,2.73176 -0.93471,-0.30371 -0.10375,-3.07662 -0.68143,-3.87173 -0.57768,-0.79511 -3.47166,-0.8617 -3.47166,-1.84451 z"
       inkscape:transform-center-x="0.52743807" />
    <path
       sodipodi:type="star"
       style="fill:#b3beff;fill-opacity:1;stroke:none;stroke-width:0;stroke-linejoin:miter;stroke-miterlimit:4;stroke-dasharray:none;stroke-opacity:1"
       id="path4201"
       sodipodi:sides="5"
       sodipodi:cx="175.71603"
       sodipodi:cy="860.38267"
       sodipodi:r1="3.6055512"
       sodipodi:r2="1.8824764"
       sodipodi:arg1="-1.3734008"
       sodipodi:arg2="-0.74508224"
       inkscape:flatsided="false"
       inkscape:rounded="0.25"
       inkscape:randomized="0"
       d="m 176.42314,856.84716 c 0.57812,0.11562 0.27683,1.8258 0.67657,2.25915 0.39975,0.43336 2.12864,0.27078 2.19732,0.85634 0.0687,0.58556 -1.65089,0.82748 -1.93951,1.34158 -0.28861,0.51409 0.40026,2.10812 -0.13541,2.35439 -0.53568,0.24627 -1.29714,-1.31438 -1.87526,-1.43001 -0.57812,-0.11562 -1.88126,1.03212 -2.28101,0.59876 -0.39975,-0.43335 0.84922,-1.63982 0.78054,-2.22537 -0.0687,-0.58556 -1.56295,-1.47025 -1.27433,-1.98435 0.28861,-0.5141 1.82198,0.30093 2.35766,0.0547 0.53567,-0.24627 0.91531,-1.94078 1.49343,-1.82515 z"
       inkscape:transform-center-x="-0.20102833"
       inkscape:transform-center-y="-0.11946969" />
    <path
       sodipodi:type="star"
       style="fill:#b3beff;fill-opacity:1;stroke:none;stroke-width:0;stroke-linejoin:miter;stroke-miterlimit:4;stroke-dasharray:none;stroke-opacity:1"
       id="path4203"
       sodipodi:sides="5"
       sodipodi:cx="105.35891"
       sodipodi:cy="818.66337"
       sodipodi:r1="5.7554321"
       sodipodi:r2="3.0049398"
       sodipodi:arg1="-1.7561443"
       sodipodi:arg2="-1.1278257"
       inkscape:flatsided="false"
       inkscape:rounded="0.25"
       inkscape:randomized="0"
       d="m 104.29825,813.00654 c 0.925,-0.17344 1.49837,2.53855 2.34865,2.94194 0.85028,0.40339 3.31345,-0.86803 3.76424,-0.0419 0.45078,0.82613 -1.95129,2.20949 -2.07219,3.14281 -0.12089,0.93332 1.84946,2.88304 1.20307,3.56705 -0.6464,0.68402 -2.70434,-1.17301 -3.62933,-0.99958 -0.925,0.17344 -2.17042,2.64985 -3.0207,2.24646 -0.85029,-0.40338 0.27992,-2.93445 -0.17087,-3.76058 -0.45079,-0.82613 -3.190852,-1.24535 -3.06996,-2.17867 0.120891,-0.93331 2.87733,-0.64057 3.52373,-1.32459 0.64639,-0.68401 0.19836,-3.41951 1.12336,-3.59294 z"
       inkscape:transform-center-x="0.30156732"
       inkscape:transform-center-y="-0.21026821" />
    <path
       sodipodi:type="star"
       style="fill:#b3beff;fill-opacity:1;stroke:none;stroke-width:0;stroke-linejoin:miter;stroke-miterlimit:4;stroke-dasharray:none;stroke-opacity:1"
       id="path4205"
       sodipodi:sides="5"
       sodipodi:cx="121.26881"
       sodipodi:cy="899.27354"
       sodipodi:r1="6.0518594"
       sodipodi:r2="3.1597061"
       sodipodi:arg1="-3.0244839"
       sodipodi:arg2="-2.3961654"
       inkscape:flatsided="false"
       inkscape:rounded="0.25"
       inkscape:randomized="0"
       d="m 115.2584,898.56645 c 0.11562,-0.98281 3.01744,-0.70893 3.68866,-1.43607 0.67122,-0.72715 0.16649,-3.59783 1.13693,-3.79157 0.97043,-0.19374 1.60667,2.65069 2.50565,3.06436 0.89897,0.41367 3.47318,-0.95345 3.95732,-0.0904 0.48413,0.86307 -2.02446,2.34714 -2.14009,3.32995 -0.11562,0.98281 1.98005,3.00856 1.30883,3.73571 -0.67122,0.72715 -2.85786,-1.20007 -3.82829,-1.00633 -0.97044,0.19374 -2.24944,2.81284 -3.14842,2.39917 -0.89898,-0.41367 0.25821,-3.08883 -0.22593,-3.9519 -0.48414,-0.86307 -3.37029,-1.27013 -3.25466,-2.25294 z"
       inkscape:transform-center-x="0.33684147"
       inkscape:transform-center-y="-0.20111751" />
    <path
       sodipodi:type="star"
       style="fill:#b3beff;fill-opacity:1;stroke:none;stroke-width:0;stroke-linejoin:miter;stroke-miterlimit:4;stroke-dasharray:none;stroke-opacity:1"
       id="path4207"
       sodipodi:sides="5"
       sodipodi:cx="131.52187"
       sodipodi:cy="978.46951"
       sodipodi:r1="9.6501293"
       sodipodi:r2="5.0383811"
       sodipodi:arg1="2.0672191"
       sodipodi:arg2="2.6955376"
       inkscape:flatsided="false"
       inkscape:rounded="0.25"
       inkscape:randomized="0"
       d="m 126.92567,986.95476 c -1.38749,-0.75156 0.73154,-4.8881 0.0508,-6.31167 -0.68075,-1.42357 -5.23089,-2.37092 -4.94488,-3.92275 0.28602,-1.55183 4.87492,-0.81477 6.01845,-1.90211 1.14354,-1.08735 0.63845,-5.70753 2.20271,-5.91506 1.56427,-0.20752 2.28133,4.38454 3.66882,5.1361 1.3875,0.75156 5.62548,-1.15652 6.30623,0.26705 0.68075,1.42358 -3.46498,3.52457 -3.751,5.0764 -0.28602,1.55183 2.83829,4.99276 1.69476,6.0801 -1.14354,1.08734 -4.4228,-2.20624 -5.98707,-1.99872 -1.56426,0.20753 -3.87131,4.24222 -5.25881,3.49066 z"
       inkscape:transform-center-x="0.36094528"
       inkscape:transform-center-y="-0.49732738" />
    <path
       sodipodi:type="star"
       style="fill:#b3beff;fill-opacity:1;stroke:none;stroke-width:0;stroke-linejoin:miter;stroke-miterlimit:4;stroke-dasharray:none;stroke-opacity:1"
       id="path4209"
       sodipodi:sides="5"
       sodipodi:cx="127.27922"
       sodipodi:cy="1023.7243"
       sodipodi:r1="6.7268119"
       sodipodi:r2="3.5121021"
       sodipodi:arg1="-3.0890096"
       sodipodi:arg2="-2.4606911"
       inkscape:flatsided="false"
       inkscape:rounded="0.25"
       inkscape:randomized="0"
       d="m 120.56171,1023.3708 c 0.0578,-1.0985 3.29617,-1.0027 3.98859,-1.8573 0.69241,-0.8547 -0.0732,-4.0027 0.98934,-4.2872 1.06254,-0.2844 1.97213,2.825 2.99894,3.2195 1.02681,0.3944 3.78416,-1.3066 4.38304,-0.3839 0.59887,0.9226 -2.07734,2.7486 -2.13515,3.847 -0.0578,1.0984 2.41193,3.1952 1.71952,4.0499 -0.69241,0.8547 -3.25599,-1.1263 -4.31853,-0.8419 -1.06254,0.2845 -2.29351,3.2813 -3.32031,2.8869 -1.02681,-0.3944 0.065,-3.4447 -0.53385,-4.3673 -0.59888,-0.9227 -3.82941,-1.1673 -3.77159,-2.2657 z"
       inkscape:transform-center-x="0.49428954"
       inkscape:transform-center-y="-0.10057757" />
    <path
       sodipodi:type="star"
       style="fill:#b3beff;fill-opacity:1;stroke:none;stroke-width:0;stroke-linejoin:miter;stroke-miterlimit:4;stroke-dasharray:none;stroke-opacity:1"
       id="path4211"
       sodipodi:sides="5"
       sodipodi:cx="244.65895"
       sodipodi:cy="863.2111"
       sodipodi:r1="8.0777473"
       sodipodi:r2="4.217432"
       sodipodi:arg1="-1.9756881"
       sodipodi:arg2="-1.3473696"
       inkscape:flatsided="false"
       inkscape:rounded="0.25"
       inkscape:randomized="0"
       d="m 241.47697,855.7865 c 1.21406,-0.52031 2.82842,3.01935 4.11645,3.31202 1.28802,0.29266 4.27347,-2.20183 5.14348,-1.20798 0.87001,0.99386 -1.99755,3.62302 -1.87787,4.93845 0.11969,1.31542 3.41464,3.38391 2.73828,4.51845 -0.67636,1.13455 -4.06297,-0.7802 -5.27703,-0.25989 -1.21406,0.52031 -2.16311,4.2932 -3.45114,4.00054 -1.28802,-0.29267 -0.51351,-4.10522 -1.38352,-5.09907 -0.87001,-0.99385 -4.75151,-0.73057 -4.87119,-2.04599 -0.11968,-1.31542 3.74561,-1.75696 4.42197,-2.8915 0.67636,-1.13455 -0.77349,-4.74472 0.44057,-5.26503 z"
       inkscape:transform-center-x="0.50873595"
       inkscape:transform-center-y="0.20819146" />
    <path
       sodipodi:type="star"
       style="fill:#b3beff;fill-opacity:1;stroke:none;stroke-width:0;stroke-linejoin:miter;stroke-miterlimit:4;stroke-dasharray:none;stroke-opacity:1"
       id="path4213"
       sodipodi:sides="5"
       sodipodi:cx="208.95004"
       sodipodi:cy="838.10881"
       sodipodi:r1="5.7008772"
       sodipodi:r2="2.9764564"
       sodipodi:arg1="-1.6951513"
       sodipodi:arg2="-1.0668328"
       inkscape:flatsided="false"
       inkscape:rounded="0.25"
       inkscape:randomized="0"
       d="m 208.24294,832.45197 c 0.92499,-0.11562 1.32813,2.60029 2.14443,3.05045 0.8163,0.45015 3.32835,-0.65815 3.72415,0.18584 0.39581,0.844 -2.0626,2.06667 -2.23847,2.98212 -0.17588,0.91546 1.65445,2.96207 0.97407,3.59931 -0.68038,0.63724 -2.6029,-1.32302 -3.52789,-1.20739 -0.925,0.11562 -2.30584,2.4888 -3.12214,2.03864 -0.8163,-0.45015 0.45392,-2.88433 0.0581,-3.72833 -0.39581,-0.84399 -3.07954,-1.4239 -2.90366,-2.33935 0.17587,-0.91545 2.88343,-0.4596 3.56381,-1.09684 0.68038,-0.63724 0.40258,-3.36882 1.32758,-3.48445 z"
       inkscape:transform-center-x="0.20111144"
       inkscape:transform-center-y="-0.30579613" />
    <path
       sodipodi:type="star"
       style="fill:#b3beff;fill-opacity:1;stroke:none;stroke-width:0;stroke-linejoin:miter;stroke-miterlimit:4;stroke-dasharray:none;stroke-opacity:1"
       id="path4215"
       sodipodi:sides="5"
       sodipodi:cx="69.296463"
       sodipodi:cy="895.0309"
       sodipodi:r1="6.5192022"
       sodipodi:r2="3.4037082"
       sodipodi:arg1="-0.86217005"
       sodipodi:arg2="-0.23385152"
       inkscape:flatsided="false"
       inkscape:rounded="0.25"
       inkscape:randomized="0"
       d="m 73.539104,890.08114 c 0.809372,0.69374 -1.178599,3.12403 -0.931578,4.16102 0.247021,1.03699 3.117158,2.31002 2.707474,3.29416 -0.409683,0.98414 -3.335334,-0.15554 -4.245238,0.39984 -0.909903,0.55538 -1.233708,3.67843 -2.296279,3.59292 -1.062571,-0.0855 -0.882751,-3.22016 -1.692124,-3.91391 -0.809373,-0.69375 -3.879631,-0.0366 -4.126653,-1.07362 -0.247021,-1.03699 2.789765,-1.83463 3.199448,-2.81877 0.409684,-0.98414 -1.164036,-3.70106 -0.254132,-4.25644 0.909903,-0.55538 2.60692,2.08629 3.669491,2.17181 1.062571,0.0855 3.160218,-2.25076 3.969591,-1.55701 z"
       inkscape:transform-center-x="0.14876607"
       inkscape:transform-center-y="0.42935603" />
    <path
       sodipodi:type="star"
       style="fill:#b3beff;fill-opacity:1;stroke:none;stroke-width:0;stroke-linejoin:miter;stroke-miterlimit:4;stroke-dasharray:none;stroke-opacity:1"
       id="path4217"
       sodipodi:sides="5"
       sodipodi:cx="13.081475"
       sodipodi:cy="1026.9063"
       sodipodi:r1="4.3156691"
       sodipodi:r2="2.2532325"
       sodipodi:arg1="-2.1815223"
       sodipodi:arg2="-1.5532038"
       inkscape:flatsided="false"
       inkscape:rounded="0.25"
       inkscape:randomized="0"
       d="m 10.606602,1023.3707 c 0.578123,-0.4047 1.808931,1.2703 2.514511,1.2827 0.70558,0.012 1.994547,-1.6182 2.558077,-1.1934 0.563529,0.4247 -0.649076,2.1129 -0.442846,2.7878 0.20623,0.6749 2.155324,1.3969 1.925481,2.0641 -0.229843,0.6672 -2.210082,0.036 -2.788206,0.4403 -0.578123,0.4047 -0.662483,2.4815 -1.368063,2.4691 -0.705581,-0.012 -0.716831,-2.091 -1.28036,-2.5157 -0.56353,-0.4248 -2.5647616,0.1367 -2.7709913,-0.5381 -0.2062296,-0.6749 1.7670563,-1.3279 1.9968993,-1.9951 0.229843,-0.6672 -0.922626,-2.397 -0.344502,-2.8017 z"
       inkscape:transform-center-x="0.021598276"
       inkscape:transform-center-y="0.35822989" />
    <path
       sodipodi:type="star"
       style="fill:#b3beff;fill-opacity:1;stroke:none;stroke-width:0;stroke-linejoin:miter;stroke-miterlimit:4;stroke-dasharray:none;stroke-opacity:1"
       id="path4219"
       sodipodi:sides="5"
       sodipodi:cx="12.020815"
       sodipodi:cy="814.77428"
       sodipodi:r1="5"
       sodipodi:r2="2.6105249"
       sodipodi:arg1="-1.4288993"
       sodipodi:arg2="-0.80058074"
       inkscape:flatsided="false"
       inkscape:rounded="0.25"
       inkscape:randomized="0"
       d="m 12.727922,809.82454 c 0.809372,0.11563 0.523741,2.50674 1.110575,3.07602 0.586834,0.56928 2.968171,0.21119 3.108315,1.01667 0.140145,0.80549 -2.222202,1.27274 -2.582277,2.00677 -0.360076,0.73402 0.716366,2.88815 -0.0064,3.27035 -0.722759,0.38219 -1.897138,-1.72015 -2.706511,-1.83577 -0.809373,-0.11562 -2.5254322,1.57379 -3.112266,1.00451 -0.5868337,-0.56927 1.0497064,-2.33583 0.909562,-3.14132 -0.1401443,-0.80549 -2.2771692,-1.9155 -1.9170937,-2.64953 0.3600755,-0.73403 2.5458927,0.27651 3.2686517,-0.10568 0.722758,-0.3822 1.118064,-2.75764 1.927437,-2.64202 z"
       inkscape:transform-center-x="-0.20109516"
       inkscape:transform-center-y="-0.24369915" />
  </g>
</svg>
